<?xml version="1.0" encoding="UTF-8" standalone="no"?>
<svg
   shape-rendering="geometricPrecision"
   text-rendering="geometricPrecision"
   image-rendering="optimizeQuality"
   fill-rule="evenodd"
   clip-rule="evenodd"
   viewBox="0 0 512 512"
   version="1.1"
   id="svg1"
   sodipodi:docname="tidal-round-black-icon.svg"
   inkscape:version="1.3.2 (091e20ef0f, 2023-11-25)"
   xmlns:inkscape="http://www.inkscape.org/namespaces/inkscape"
   xmlns:sodipodi="http://sodipodi.sourceforge.net/DTD/sodipodi-0.dtd"
   xmlns="http://www.w3.org/2000/svg"
   xmlns:svg="http://www.w3.org/2000/svg">
  <defs
     id="defs1" />
  <sodipodi:namedview
     id="namedview1"
     pagecolor="#ffffff"
     bordercolor="#000000"
     borderopacity="0.25"
     inkscape:showpageshadow="2"
     inkscape:pageopacity="0.0"
     inkscape:pagecheckerboard="0"
     inkscape:deskcolor="#d1d1d1"
     inkscape:zoom="1.5722656"
     inkscape:cx="256"
     inkscape:cy="256"
     inkscape:window-width="1920"
     inkscape:window-height="1011"
     inkscape:window-x="0"
     inkscape:window-y="0"
     inkscape:window-maximized="1"
     inkscape:current-layer="svg1" />
  <path
     d="M256 0c141.385 0 256 114.615 256 256S397.385 512 256 512 0 397.385 0 256 114.615 0 256 0zm50.384 219.459l-50.372 50.383 50.379 50.391-50.382 50.393-50.395-50.393 50.393-50.389-50.393-50.39 50.395-50.372 50.38 50.369 50.389-50.375 50.382 50.382-50.382 50.392-50.394-50.391zm-100.767-.001l-50.392 50.392-50.385-50.392 50.385-50.382 50.392 50.382z"
     id="path1" />
  <path
     style="fill:#000000;stroke-width:0.636025"
     d="m 240.09938,511.24034 c -20.31287,-1.1982 -45.51816,-6.17622 -65.67761,-12.97126 C 92.584578,470.6846 29.227838,402.37609 8.285011,319.14759 2.5856454,296.49785 0.68243634,280.68964 0.68243634,256 c 0,-20.09004 0.73288116,-28.85869 3.82743116,-45.79379 C 19.101541,130.35246 70.910741,61.967318 143.74161,26.428385 170.83873,13.205934 196.60266,5.6776347 228.01491,1.8034645 c 12.62755,-1.55739444 43.57282,-1.56632337 55.97018,-0.01615 31.68265,3.961616 57.16171,11.4115595 84.2733,24.6410705 67.12618,32.755246 117.34784,94.458315 135.4566,166.424025 5.62678,22.36126 7.58292,38.43364 7.6082,62.51157 0.0194,18.45895 -0.51548,26.07029 -2.8604,40.70559 -14.65575,91.47064 -77.47479,167.86077 -164.37335,199.88369 -32.63152,12.02502 -68.90124,17.35686 -103.99006,15.28708 z m 41.65963,-165.56084 25.43502,-25.44099 -25.27906,-25.28499 -25.27906,-25.28499 24.80505,-24.79893 24.80504,-24.79893 24.96694,24.96094 c 13.73181,13.72852 25.25047,24.96094 25.597,24.96094 0.82754,0 50.56397,-49.73054 50.56397,-50.55797 0,-0.83151 -49.72666,-50.56998 -50.55797,-50.56998 -0.34984,0 -11.87119,11.23242 -25.60302,24.96095 L 306.24596,218.78651 281.12298,193.66957 256,168.55262 l -25.12298,25.11695 -25.12298,25.11694 -24.96696,-24.96096 c -13.73183,-13.72853 -25.12937,-24.96095 -25.32787,-24.96095 -0.26451,0 -48.93836,48.47944 -50.80511,50.6022 -0.38413,0.4368 49.709,50.52575 50.52996,50.52575 0.34984,0 11.87119,-11.23242 25.603,-24.96094 l 24.96694,-24.96094 24.80504,24.79893 24.80505,24.79893 -25.27906,25.28499 -25.27906,25.28499 25.43502,25.44099 c 13.98927,13.99255 25.58082,25.441 25.75901,25.441 0.17819,0 11.76974,-11.44845 25.75901,-25.441 z"
     id="path2" />
  <path
     style="fill:#ffc0cb;fill-opacity:1;stroke-width:0.636025"
     d="m 239.78137,511.28696 c -1.74907,-0.14056 -7.18708,-0.69932 -12.08448,-1.2417 C 152.72644,501.74238 85.308683,460.60759 43.266589,397.51553 20.296803,363.04505 7.15585,327.07358 1.7921112,283.98509 0.25060804,271.60175 0.25977169,240.63134 1.8086719,228.01491 7.075929,185.11091 20.264621,148.99313 43.265207,114.48447 81.929108,56.475544 141.95802,16.928594 210.20621,4.5040273 c 17.26759,-3.1435612 25.68324,-3.83966742 46.1118,-3.81416887 20.4162,0.0254832 27.74222,0.64213347 45.47578,3.82781347 73.84025,13.2647591 138.81168,59.3449021 176.4719,125.1604081 16.91353,29.5583 27.49066,62.14086 31.92265,98.33683 1.58628,12.9551 1.58628,43.01508 0,55.97018 -2.29089,18.70965 -6.227,36.5868 -11.59294,52.65319 -13.71318,41.0592 -38.39405,79.10071 -69.84155,107.64924 -41.00173,37.222 -89.05276,59.15943 -144.13273,65.80297 -8.21286,0.9906 -37.63281,1.77562 -44.83975,1.19647 z m 41.97764,-165.60746 25.43502,-25.44099 -25.27906,-25.28499 -25.27906,-25.28499 24.80505,-24.79893 24.80504,-24.79893 25.03592,25.02991 c 21.87949,21.87422 25.18722,24.94598 26.236,24.36429 0.66005,-0.36608 12.19908,-11.6837 25.64229,-25.15027 l 24.44219,-24.48467 -10.87427,-11.33111 c -9.63989,-10.04487 -19.0171,-19.38048 -35.29722,-35.14064 l -4.9194,-4.76229 -25.14044,25.08764 -25.14045,25.08764 L 281.11531,193.66189 256,168.55262 l -25.12298,25.11695 -25.12298,25.11694 -25.124,-25.11796 -25.12399,-25.11796 -25.58881,25.5888 -25.5888,25.5888 24.47677,24.5387 c 13.46223,13.49627 25.01682,24.83679 25.67687,25.20113 1.04782,0.5784 4.37671,-2.51341 26.236,-24.36744 l 25.03592,-25.02991 24.80504,24.79893 24.80505,24.79893 -25.27906,25.28499 -25.27906,25.28499 25.43502,25.44099 c 13.98927,13.99255 25.58082,25.441 25.75901,25.441 0.17819,0 11.76974,-11.44845 25.75901,-25.441 z"
     id="path3" />
</svg>
