<?xml version="1.0" encoding="UTF-8" standalone="no"?>
<svg
   viewBox="0 0 34 35.942032"
   version="1.1"
   id="svg1"
   sodipodi:docname="kde.svg"
   inkscape:version="1.3.2 (091e20ef0f, 2023-11-25)"
   width="34"
   height="35.942032"
   xmlns:inkscape="http://www.inkscape.org/namespaces/inkscape"
   xmlns:sodipodi="http://sodipodi.sourceforge.net/DTD/sodipodi-0.dtd"
   xmlns="http://www.w3.org/2000/svg"
   xmlns:svg="http://www.w3.org/2000/svg">
  <defs
     id="defs1" />
  <sodipodi:namedview
     id="namedview1"
     pagecolor="#ffffff"
     bordercolor="#000000"
     borderopacity="0.25"
     inkscape:showpageshadow="2"
     inkscape:pageopacity="0.0"
     inkscape:pagecheckerboard="0"
     inkscape:deskcolor="#d1d1d1"
     inkscape:zoom="16.75"
     inkscape:cx="17.014925"
     inkscape:cy="17.970149"
     inkscape:window-width="1920"
     inkscape:window-height="1008"
     inkscape:window-x="0"
     inkscape:window-y="0"
     inkscape:window-maximized="1"
     inkscape:current-layer="svg1" />
  <path
     d="M 19.81721,0 13.839778,0.5722243 V 25.185508 l 5.914217,-0.890396 V 13.80113 l 7.94986,11.63921 6.232374,-1.972015 L 25.795757,12.274816 34,1.7171831 27.640641,0.2550731 19.754134,10.812267 Z M 6.2678155,5.9978532 c -0.0675,0.0071 -0.132687,0.03685 -0.183377,0.08773 l -2.346015,2.345604 c -0.09864,0.09893 -0.11722,0.252309 -0.0445,0.372086 l 2.746696,4.5237948 c -0.487167,0.819006 -0.877623,1.70206 -1.156683,2.633586 L 0.2413813,17.009521 C 0.1010862,17.038576 0,17.162888 0,17.306858 v 3.317296 c 0,0.140314 0.095983,0.261806 0.2311699,0.294475 l 4.8943156,1.196322 c 0.260998,1.07887 0.665445,2.101628 1.199988,3.041644 l -2.832973,4.319972 c -0.07904,0.120754 -0.06252,0.279776 0.0396,0.381468 l 2.345182,2.345604 c 0.09864,0.09836 0.252621,0.117637 0.372908,0.04535 L 10.6895,29.552875 c 0.872008,0.503187 1.812374,0.899183 2.806296,1.16772 l 1.035783,4.980041 c 0.02915,0.141164 0.153885,0.241396 0.296928,0.241396 h 3.317709 c 0.139477,0 0.261191,-0.09524 0.294481,-0.232013 l 1.219994,-4.990317 c 1.024557,-0.276502 1.993542,-0.688627 2.886878,-1.21469 l 4.374709,2.868406 c 0.120287,0.07923 0.279379,0.06335 0.38148,-0.03869 l 2.346016,-2.34559 c 0.09924,-0.09921 0.117013,-0.252607 0.04409,-0.372072 l -1.597029,-2.631956 -0.516676,0.163387 c -0.07532,0.02381 -0.157451,-0.0043 -0.201757,-0.06987 0,0 -1.01864,-1.491165 -2.334207,-3.41665 -1.572714,3.077927 -4.772331,5.186372 -8.467241,5.186372 -5.249568,0 -9.5054885,-4.256079 -9.5054885,-9.505904 0,-3.861926 2.303503,-7.183248 5.6102355,-8.671068 V 8.2190642 c -0.601827,0.210541 -1.183648,0.464396 -1.736239,0.765418 -4.04e-4,-3.69e-4 -8.09e-4,-0.0014 -0.0024,-0.0028 L 6.4654035,6.0449192 c -0.0603,-0.0394 -0.130199,-0.05513 -0.197673,-0.04819 z"
     fill="#31363b"
     id="path1"
     style="fill:#ffbfca;fill-opacity:1" />
</svg>
