<?xml version="1.0" encoding="UTF-8" standalone="no"?>
<svg
   height="9"
   viewBox="0 0 13.960937 9"
   width="13.960937"
   version="1.1"
   id="svg12"
   sodipodi:docname="dock-symbolic.svg"
   inkscape:version="1.3.2 (091e20ef0f, 2023-11-25)"
   xmlns:inkscape="http://www.inkscape.org/namespaces/inkscape"
   xmlns:sodipodi="http://sodipodi.sourceforge.net/DTD/sodipodi-0.dtd"
   xmlns="http://www.w3.org/2000/svg"
   xmlns:svg="http://www.w3.org/2000/svg">
  <defs
     id="defs12" />
  <sodipodi:namedview
     id="namedview12"
     pagecolor="#ffffff"
     bordercolor="#000000"
     borderopacity="0.25"
     inkscape:showpageshadow="2"
     inkscape:pageopacity="0.0"
     inkscape:pagecheckerboard="0"
     inkscape:deskcolor="#d1d1d1"
     inkscape:zoom="50.25"
     inkscape:cx="6.9452736"
     inkscape:cy="8"
     inkscape:window-width="1920"
     inkscape:window-height="1008"
     inkscape:window-x="0"
     inkscape:window-y="0"
     inkscape:window-maximized="1"
     inkscape:current-layer="svg12" />
  <filter
     id="a"
     height="1"
     width="1"
     x="0"
     y="0">
    <feColorMatrix
       color-interpolation-filters="sRGB"
       values="0 0 0 0 1 0 0 0 0 1 0 0 0 0 1 0 0 0 1 0"
       id="feColorMatrix1" />
  </filter>
  <mask
     id="b">
    <g
       filter="url(#a)"
       id="g1">
      <path
         d="M -1.6,-1.6 H 17.6 V 17.6 H -1.6 Z"
         fill-opacity="0.5"
         id="path1" />
    </g>
  </mask>
  <clipPath
     id="c">
    <path
       d="M 0,0 H 1600 V 1200 H 0 Z"
       id="path2" />
  </clipPath>
  <mask
     id="d">
    <g
       filter="url(#a)"
       id="g3">
      <path
         d="M -1.6,-1.6 H 17.6 V 17.6 H -1.6 Z"
         fill-opacity="0.7"
         id="path3" />
    </g>
  </mask>
  <clipPath
     id="e">
    <path
       d="M 0,0 H 1600 V 1200 H 0 Z"
       id="path4" />
  </clipPath>
  <mask
     id="f">
    <g
       filter="url(#a)"
       id="g5">
      <path
         d="M -1.6,-1.6 H 17.6 V 17.6 H -1.6 Z"
         fill-opacity="0.35"
         id="path5" />
    </g>
  </mask>
  <clipPath
     id="g">
    <path
       d="M 0,0 H 1600 V 1200 H 0 Z"
       id="path6" />
  </clipPath>
  <g
     mask="url(#b)"
     id="g8"
     transform="translate(-1.058594)">
    <g
       clip-path="url(#c)"
       transform="translate(-40,-476)"
       id="g7">
      <path
         d="m 550,182 c -0.35156,0.004 -0.69531,0.10156 -1,0.28125 v 3.4375 c 0.30469,0.17969 0.64844,0.27734 1,0.28125 1.10547,0 2,-0.89453 2,-2 0,-1.10547 -0.89453,-2 -2,-2 z m 0,5 c -0.33984,0 -0.67969,0.0586 -1,0.17578 V 194 h 4 v -4 c 0,-1.65625 -1.34375,-3 -3,-3 z m 0,0"
         id="path7" />
    </g>
  </g>
  <g
     mask="url(#d)"
     id="g10"
     transform="translate(-1.058594)">
    <g
       clip-path="url(#e)"
       transform="translate(-40,-476)"
       id="g9">
      <path
         d="m 569,182 v 4 c 1.10547,0 2,-0.89453 2,-2 0,-1.10547 -0.89453,-2 -2,-2 z m 0,5 v 7 h 3 v -4 c 0,-1.65625 -1.34375,-3 -3,-3 z m 0,0"
         id="path8" />
    </g>
  </g>
  <g
     mask="url(#f)"
     id="g12"
     transform="translate(-1.058594)">
    <g
       clip-path="url(#g)"
       transform="translate(-40,-476)"
       id="g11">
      <path
         d="m 573,182.26953 v 3.44922 c 0.61328,-0.35547 0.99609,-1.00781 1,-1.71875 0,-0.71484 -0.38281,-1.375 -1,-1.73047 z m 0,4.90625 V 194 h 2 v -4 c 0,-1.26953 -0.80078,-2.40234 -2,-2.82422 z m 0,0"
         id="path10" />
    </g>
  </g>
  <path
     d="m 3.941406,0 c -1.660156,0 -3,1.339844 -3,3 V 6 H 0 v 1 c 0,1.105469 0.894531,2 2,2 h 9.960937 c 1.105469,0 2,-0.894531 2,-2 V 6 H 12.941406 V 3 c 0,-1.660156 -1.339844,-3 -3,-3 z m 0,2 h 6 c 0.546875,0 1,0.453125 1,1 v 3 h -8 V 3 c 0,-0.546875 0.453125,-1 1,-1 z"
     fill="#2e3436"
     id="path12"
     sodipodi:nodetypes="ssccssssccssssssccss"
     style="fill:#ffbfca;fill-opacity:1" />
</svg>
