<?xml version="1.0" encoding="UTF-8" standalone="no"?>
<svg
   height="16px"
   viewBox="0 0 16 16"
   width="16px"
   version="1.1"
   id="svg2"
   sodipodi:docname="user-home-symbolic.svg"
   inkscape:version="1.3 (0e150ed6c4, 2023-07-21)"
   xmlns:inkscape="http://www.inkscape.org/namespaces/inkscape"
   xmlns:sodipodi="http://sodipodi.sourceforge.net/DTD/sodipodi-0.dtd"
   xmlns="http://www.w3.org/2000/svg"
   xmlns:svg="http://www.w3.org/2000/svg">
  <defs
     id="defs2" />
  <sodipodi:namedview
     id="namedview2"
     pagecolor="#ffffff"
     bordercolor="#000000"
     borderopacity="0.25"
     inkscape:showpageshadow="2"
     inkscape:pageopacity="0.0"
     inkscape:pagecheckerboard="0"
     inkscape:deskcolor="#d1d1d1"
     inkscape:zoom="38.862793"
     inkscape:cx="10.665729"
     inkscape:cy="5.3135656"
     inkscape:window-width="1440"
     inkscape:window-height="831"
     inkscape:window-x="0"
     inkscape:window-y="0"
     inkscape:window-maximized="1"
     inkscape:current-layer="svg2" />
  <path
     d="m 12 16 c 1.660156 0 3 -1.339844 3 -3 v -6 c 0 -0.929688 -0.414062 -1.8125 -1.128906 -2.410156 l -4.460938 -3.71875 c -0.816406 -0.679688 -2.003906 -0.679688 -2.820312 0 l -4.460938 3.71875 c -0.714844 0.597656 -1.128906 1.480468 -1.128906 2.410156 v 6 c 0 1.660156 1.339844 3 3 3 z m -9 -3 v -6 c 0 -0.335938 0.148438 -0.65625 0.410156 -0.871094 l 4.460938 -3.71875 c 0.074218 -0.0625 0.183594 -0.0625 0.257812 0 l 4.460938 3.71875 c 0.261718 0.214844 0.410156 0.535156 0.410156 0.871094 v 6 c 0 0.546875 -0.453125 1 -1 1 h -8 c -0.546875 0 -1 -0.453125 -1 -1 z m 0 0"
     id="path1"
     style="fill:#1d1f21;fill-opacity:1" />
  <path
     d="m 7 8 h 2 c 0.550781 0 1 0.449219 1 1 v 5 c 0 0.550781 -0.449219 1 -1 1 h -2 c -0.550781 0 -1 -0.449219 -1 -1 v -5 c 0 -0.550781 0.449219 -1 1 -1 z m 0 0"
     id="path2"
     inkscape:label="path2"
     style="fill:#1d1f21;fill-opacity:1" />
</svg>
