<?xml version="1.0" encoding="UTF-8" standalone="no"?>
<svg
   height="16px"
   viewBox="0 0 16 16"
   width="16px"
   version="1.1"
   id="svg4"
   sodipodi:docname="system-users-symbolic.svg"
   inkscape:version="1.3.2 (091e20ef0f, 2023-11-25)"
   xmlns:inkscape="http://www.inkscape.org/namespaces/inkscape"
   xmlns:sodipodi="http://sodipodi.sourceforge.net/DTD/sodipodi-0.dtd"
   xmlns="http://www.w3.org/2000/svg"
   xmlns:svg="http://www.w3.org/2000/svg">
  <defs
     id="defs4" />
  <sodipodi:namedview
     id="namedview4"
     pagecolor="#ffffff"
     bordercolor="#000000"
     borderopacity="0.25"
     inkscape:showpageshadow="2"
     inkscape:pageopacity="0.0"
     inkscape:pagecheckerboard="0"
     inkscape:deskcolor="#d1d1d1"
     inkscape:zoom="50.3125"
     inkscape:cx="8"
     inkscape:cy="8"
     inkscape:window-width="1920"
     inkscape:window-height="1011"
     inkscape:window-x="0"
     inkscape:window-y="0"
     inkscape:window-maximized="1"
     inkscape:current-layer="svg4" />
  <g
     fill="#2e3436"
     id="g4"
     style="fill:var(--main-pink);fill-opacity:1">
    <path
       d="m 13.5 6.5 c 0 1.378906 -1.121094 2.5 -2.5 2.5 c -1.382812 0 -2.5 -1.121094 -2.5 -2.5 c 0 -1.382812 1.117188 -2.5 2.5 -2.5 c 1.378906 0 2.5 1.117188 2.5 2.5 z m 0 0"
       id="path1"
       style="fill:var(--main-pink);fill-opacity:1" />
    <path
       d="m 7.5 3.5 c 0 1.378906 -1.121094 2.5 -2.5 2.5 s -2.5 -1.121094 -2.5 -2.5 s 1.121094 -2.5 2.5 -2.5 s 2.5 1.121094 2.5 2.5 z m 0 0"
       id="path2"
       style="fill:var(--main-pink);fill-opacity:1" />
    <path
       d="m 3 7 c -1.660156 0 -3 1.339844 -3 3 v 2 c 0 0.554688 0.445312 1 1 1 h 4.074219 c 0 -2.042969 1.582031 -3.734375 3.582031 -3.90625 c -0.589844 -0.535156 -0.984375 -1.257812 -1.109375 -2.042969 c -0.175781 -0.03125 -0.359375 -0.050781 -0.546875 -0.050781 z m 6 3.925781 c -1.167969 0 -2.078125 0.90625 -2.078125 2.074219 h 2.078125 c 0.554688 0 1 -0.445312 1 -1 v -1.074219 z m 0 0"
       id="path3"
       style="fill:var(--main-pink);fill-opacity:1" />
    <path
       d="m 9 10 c -1.664062 0 -3 1.335938 -3 3 v 2 c 0 0.554688 0.445312 1 1 1 h 8 c 0.554688 0 1 -0.445312 1 -1 v -2 c 0 -1.664062 -1.339844 -3 -3 -3 z m 0 0"
       id="path4"
       style="fill:var(--main-pink);fill-opacity:1" />
  </g>
  <path
     style="fill:#ffc0cb;stroke-width:0.0198758"
     d="M 0.77213172,12.9606 C 0.41140299,12.873101 0.10740133,12.559821 0.03190229,12.197779 -0.00302403,12.030297 0.00295048,9.8757543 0.03907834,9.6099379 0.16986252,8.647672 0.73637454,7.8308012 1.6,7.3591977 1.9033747,7.1935326 2.3183813,7.0679109 2.6973533,7.0270309 c 0.2579538,-0.027826 4.3512879,-0.028059 4.5970566,-2.616e-4 0.098385,0.011128 0.1930385,0.024598 0.2103408,0.029935 0.021159,0.00653 0.042916,0.063295 0.066454,0.1733937 0.1373473,0.6424449 0.4716211,1.2628758 0.935067,1.7355358 L 8.6267204,9.0884774 8.5113966,9.1005311 C 8.0068528,9.1532663 7.3991998,9.3677023 6.9294875,9.6587745 6.5717979,9.8804281 6.1279567,10.279537 5.8896757,10.593789 5.3889113,11.254212 5.1305107,11.952298 5.067517,12.814907 l -0.0127,0.173913 -2.0901412,-0.0017 C 1.365554,12.98582 0.85047801,12.97962 0.77213212,12.96059 Z"
     id="path5" />
  <path
     style="fill:#ffc0cb;stroke-width:0.0198758"
     d="M 6.7746162,15.961842 C 6.4256429,15.877194 6.1272861,15.581837 6.0428971,15.23748 c -0.028969,-0.11821 -0.031904,-0.275598 -0.025821,-1.384803 0.00662,-1.207233 0.00842,-1.258394 0.05101,-1.448465 0.1420655,-0.634036 0.416943,-1.126434 0.8730198,-1.563873 0.4206656,-0.403474 0.9127908,-0.658362 1.5015712,-0.777712 l 0.2231604,-0.04524 h 2.3254655 c 2.597586,0 2.476149,-0.0059 2.931677,0.142142 0.467658,0.151972 0.824827,0.372701 1.183564,0.731438 0.358721,0.358721 0.594565,0.742643 0.74241,1.208544 0.125755,0.396287 0.126463,0.405388 0.13561,1.743963 0.006,0.875106 0.0018,1.256239 -0.01464,1.341615 -0.07334,0.380302 -0.392027,0.703996 -0.7709,0.783005 -0.161025,0.03358 -8.2850498,0.02755 -8.4244058,-0.0063 z"
     id="path6" />
  <path
     style="fill:#ffc0cb;stroke-width:0.0198758"
     d="M 10.708781,8.971938 C 10.059932,8.8963997 9.446631,8.5494191 9.0439999,8.0300722 8.6873054,7.569978 8.5167702,7.0748675 8.5167702,6.4993789 8.5167702,5.821006 8.7596472,5.23505 9.242236,4.7491472 9.6048909,4.384002 10.010132,4.165693 10.534161,4.0531691 c 0.242652,-0.052104 0.696172,-0.047808 0.962656,0.00912 1.165666,0.2490122 1.988897,1.2577569 1.988897,2.4370911 0,1.264635 -0.955381,2.3311042 -2.216149,2.4738329 -0.203708,0.023062 -0.354698,0.022718 -0.560784,-0.00127 z"
     id="path7" />
  <path
     style="fill:#ffc0cb;stroke-width:0.0198758"
     d="M 4.7801242,5.9812395 C 4.752795,5.9764577 4.663354,5.9626719 4.5813665,5.9506041 3.9731281,5.8610775 3.3473684,5.4651373 2.9670864,4.9291925 2.5531142,4.3457672 2.4118512,3.5801071 2.5903815,2.8874128 2.8164317,2.0103418 3.5039606,1.319725 4.3772232,1.0925458 5.0638545,0.91391879 5.7755236,1.0350284 6.3743235,1.4324061 7.5327489,2.2011643 7.8340468,3.7674427 7.0434896,4.9110239 6.6769137,5.4412947 6.0960521,5.8227009 5.4720743,5.9428488 5.3092176,5.9742072 4.8769906,5.9981879 4.7801242,5.9812395 Z"
     id="path8" />
</svg>
