<?xml version="1.0" encoding="UTF-8" standalone="no"?>
<svg
   height="16px"
   viewBox="0 0 16 16"
   width="16px"
   version="1.1"
   id="svg2"
   sodipodi:docname="chat-bubbles-empty-inverted-symbolic.svg"
   inkscape:version="1.3.2 (091e20ef0f, 2023-11-25)"
   xmlns:inkscape="http://www.inkscape.org/namespaces/inkscape"
   xmlns:sodipodi="http://sodipodi.sourceforge.net/DTD/sodipodi-0.dtd"
   xmlns="http://www.w3.org/2000/svg"
   xmlns:svg="http://www.w3.org/2000/svg">
  <defs
     id="defs2" />
  <sodipodi:namedview
     id="namedview2"
     pagecolor="#ffffff"
     bordercolor="#000000"
     borderopacity="0.25"
     inkscape:showpageshadow="2"
     inkscape:pageopacity="0.0"
     inkscape:pagecheckerboard="0"
     inkscape:deskcolor="#d1d1d1"
     inkscape:zoom="50.25"
     inkscape:cx="7.9900498"
     inkscape:cy="8"
     inkscape:window-width="1920"
     inkscape:window-height="1008"
     inkscape:window-x="0"
     inkscape:window-y="0"
     inkscape:window-maximized="1"
     inkscape:current-layer="svg2" />
  <g
     fill="#222222"
     id="g2"
     style="fill:#ffbfca;fill-opacity:1">
    <path
       d="m 14 3.175781 v 3.824219 c 0 2.179688 -1.820312 4 -4 4 h -3.585938 l -2 2 h 5.585938 l 3 3 v -3 c 1.644531 0 3 -1.355469 3 -3 v -4 c 0 -1.292969 -0.839844 -2.40625 -2 -2.824219 z m 0 0"
       id="path1"
       style="fill:#ffbfca;fill-opacity:1" />
    <path
       d="m 3 0 c -1.644531 0 -3 1.355469 -3 3 v 4 c 0 1.644531 1.355469 3 3 3 v 3 l 3 -3 h 4 c 1.644531 0 3 -1.355469 3 -3 v -4 c 0 -1.644531 -1.355469 -3 -3 -3 z m 0 0"
       id="path2"
       style="fill:#ffbfca;fill-opacity:1" />
  </g>
</svg>
