<?xml version="1.0" encoding="UTF-8" standalone="no"?>
<svg
   width="16"
   height="16.004"
   version="1.1"
   id="svg3"
   sodipodi:docname="web-browser-symbolic.svg"
   inkscape:version="1.3.2 (091e20ef0f, 2023-11-25)"
   xmlns:inkscape="http://www.inkscape.org/namespaces/inkscape"
   xmlns:sodipodi="http://sodipodi.sourceforge.net/DTD/sodipodi-0.dtd"
   xmlns="http://www.w3.org/2000/svg"
   xmlns:svg="http://www.w3.org/2000/svg">
  <defs
     id="defs3" />
  <sodipodi:namedview
     id="namedview3"
     pagecolor="#ffffff"
     bordercolor="#000000"
     borderopacity="0.25"
     inkscape:showpageshadow="2"
     inkscape:pageopacity="0.0"
     inkscape:pagecheckerboard="0"
     inkscape:deskcolor="#d1d1d1"
     inkscape:zoom="45.254834"
     inkscape:cx="13.004136"
     inkscape:cy="11.943475"
     inkscape:window-width="1920"
     inkscape:window-height="1011"
     inkscape:window-x="0"
     inkscape:window-y="0"
     inkscape:window-maximized="1"
     inkscape:current-layer="svg3" />
  <g
     color="#000"
     fill="#474747"
     id="g3"
     style="fill:var(--main-pink);fill-opacity:1">
    <path
       d="M8 4.846v10.38l-2.344-2.288-1.34 2.734c-.327.74-2.033.145-1.548-.844l1.326-2.839H1.136z"
       style="marker:none;fill:var(--main-pink);fill-opacity:1"
       display="block"
       overflow="visible"
       id="path1" />
    <path
       d="M7.156 1.063C3.33 1.522.578 5.02 1.063 8.843c.131 1.035.293 1.383.293 1.383l1.675-1.632A4.992 4.992 0 017.406 3.03a4.992 4.992 0 015.563 4.375c.314 2.608-1.391 5.025-3.969 5.532l.031 2s.521-.106.624-.131c3.416-.834 5.706-4.128 5.283-7.65-.46-3.827-3.955-6.555-7.782-6.095z"
       style="line-height:normal;-inkscape-font-specification:Sans;text-indent:0;text-align:start;text-decoration-line:none;text-transform:none;marker:none;fill:var(--main-pink);fill-opacity:1"
       font-weight="400"
       font-family="Sans"
       overflow="visible"
       id="path2" />
    <path
       d="M4.113 7.815v-.206l-.198.019.05-.393h-.117l-.115.15-.116.056-.165-.093-.017-.206.033-.225.248-.186h.199l.033-.113.247.056.182.225.033-.374.314-.262.116-.28.231-.094.133-.187.297-.056.149-.225h-.446l.28-.13h.199l.28-.094.034-.112-.1-.094-.115-.037.033-.112-.083-.169-.198.075.033-.15-.231-.13-.182.317.017.113-.182.075-.116.243-.05-.225-.313-.13-.05-.169.413-.243.182-.168.017-.206-.1-.056L4.84 4l-.082.206s-.139.027-.174.036C4.13 4.66 3.214 5.562 3 7.266c.008.04.155.268.155.268l.347.206.347.093m3.966-4.3l-.43-.168-.496.056-.611.168-.116.112.38.262v.15l-.149.15.199.392.132-.075.165-.262a5.51 5.51 0 00.727-.28l.199-.505m2.529.342l-.375.094-.219.156v.125l-.375.25.094.344.219-.157.125.157.156.093.094-.28L10 4.5l.063-.094.218-.187h.094l-.094.218v.188c.09-.024.16-.051.25-.063l-.25.188v.125l-.312.219-.281-.063v-.156l-.125.062.062.157h-.219l-.125.218-.156.157-.094.03v.188l.032.157H9.03v.53l.063-.03.094-.219L9.375 6l.031-.094.282-.062.156.187.187.094-.093.187.156-.03.062-.22-.187-.218h.062l.22.156.03.219.157.219.062-.313.094-.031c.096.1.169.231.25.344h.281l.188.125-.094.093-.156.157h-.25l-.344-.094h-.188l-.125.156-.343-.375-.25-.062-.375.062-.157.094V9l.032.031.25-.156.093.094h.281l.125.156-.093.312.187.188V10l.125.25-.093.25c-.01.161 0 .307 0 .469.08.219.143.435.218.656l.063.344v.187h.125l.219-.125h.25l.375-.437-.032-.157.25-.218-.187-.188.219-.187.218-.125.094-.125-.062-.25V9.75l.187-.375.188-.25.25-.563v-.156c-.117.015-.23.023-.344.031-.072.005-.145 0-.219 0a7.442 7.442 0 01-.312-.78l-.157-.188-.093-.313.062-.062.219.25.25.562.156.156-.062.22.156.155.25-.25.312-.218.157-.188v-.219c-.04-.073-.055-.145-.094-.218l-.156.187-.125-.156-.188-.125v-.281l.219.218.219-.03c.101.091.192.207.28.312L13 7.28c0-.174-.2-1.02-.625-1.75S11.22 4.125 11.22 4.125l-.063.094-.218.218-.25-.25h.25l.125-.125-.47-.093-.25-.094z"
       style="marker:none;fill:var(--main-pink);fill-opacity:1"
       overflow="visible"
       opacity=".3"
       id="path3" />
  </g>
  <path
     style="fill:#ffc0cb;stroke-width:0.0198807;fill-opacity:1"
     d="M 3.4725248,15.964839 C 3.2813335,15.921416 3.0612283,15.803589 2.9282663,15.673486 2.7208778,15.470557 2.6490284,15.21648 2.7293865,14.970201 2.7507935,14.904591 3.0655453,14.215727 3.4288359,13.439384 3.7921263,12.66304 4.0939233,12.016668 4.0994959,12.003 4.1075459,11.98325 3.8070919,11.97815 2.6361984,11.97815 H 1.1627689 l 3.4047048,-3.5425938 3.404705,-3.5425938 0.00504,2.5799778 c 0.00277,1.4189878 0.00277,3.7337128 0,5.1438328 l -0.00504,2.563855 -1.1530146,-1.124101 C 6.1850061,13.43827 5.6613443,12.932425 5.6554715,12.932425 c -0.00587,0 -0.3145523,0.62256 -0.6859542,1.383468 -0.7338795,1.50353 -0.7517634,1.534074 -0.9475603,1.618304 -0.1327654,0.05711 -0.3737083,0.07055 -0.5494322,0.03064 z"
     id="path5" />
  <path
     style="fill:#ffc0cb;fill-opacity:1;stroke-width:0.0198807"
     d="M 9.0291101,14.219703 C 9.021888,13.834265 9.0159966,13.389185 9.016018,13.230636 l 3.9e-5,-0.288271 0.2036671,-0.04726 C 9.8483119,12.749246 10.506303,12.43769 11.043741,12.03144 11.263768,11.865121 11.670348,11.476527 11.84833,11.262442 12.836775,10.073495 13.222754,8.4867856 12.900189,6.93838 12.806941,6.4907632 12.620972,5.9928909 12.387793,5.5666086 11.732511,4.3686657 10.580335,3.4772429 9.2520727,3.1405458 8.7826465,3.0215524 8.6123733,3.0029128 8.0019998,3.003702 7.4785261,3.0043788 7.4134566,3.0084106 7.1471278,3.0566723 5.7522683,3.3094353 4.5860805,4.0698018 3.8163466,5.2283763 3.4291031,5.8112404 3.1875226,6.4251047 3.0481246,7.1804551 3.0102975,7.3854276 3.0043893,7.4918019 3.00197,8.0114428 L 2.9992,8.6073675 2.188265,9.3981248 C 1.7422466,9.8330411 1.3706696,10.188882 1.3625342,10.188882 c -0.017345,0 -0.082991,-0.2174703 -0.1380287,-0.4572573 C 1.0580131,9.006259 0.98541245,8.077756 1.0423662,7.4022129 1.1593909,6.0141522 1.6783059,4.7329688 2.582894,3.5987023 2.7937902,3.3342588 3.3458548,2.784258 3.6182956,2.5671715 4.5286655,1.8417698 5.5907307,1.3514655 6.699811,1.1445846 7.2750358,1.0372857 8.0136859,0.99603743 8.53878,1.0418914 c 2.177059,0.1901124 4.084535,1.3139386 5.276462,3.108729 0.611659,0.9210286 0.975631,1.9125716 1.118191,3.0462093 0.04879,0.3880027 0.04861,1.2050453 -3.62e-4,1.5904596 -0.295817,2.3282257 -1.645503,4.3107137 -3.670714,5.3917327 -0.554279,0.295864 -1.178877,0.522757 -1.8178837,0.660371 -0.2071378,0.04461 -0.3823785,0.08111 -0.3894232,0.08111 -0.00704,0 -0.018718,-0.315358 -0.02594,-0.700796 z"
     id="path6" />
  <path
     style="fill:#ffc0cb;fill-opacity:1;stroke-width:0.0198807"
     d="m 10.228643,12.048436 c 0,-0.148733 -0.07185,-0.462134 -0.177746,-0.775308 -0.098811,-0.292224 -0.1005842,-0.301684 -0.1005882,-0.536781 -3.4e-6,-0.197339 0.00777,-0.260999 0.044333,-0.362952 L 10.038978,10.249758 9.9747648,10.11954 C 9.916495,10.001375 9.9105514,9.972398 9.9105514,9.806484 V 9.6236464 l -0.09109,-0.092481 -0.09109,-0.092481 0.041388,-0.1389742 c 0.05304,-0.178098 0.052801,-0.1813642 -0.019701,-0.2693224 -0.060311,-0.073168 -0.062931,-0.074112 -0.2056665,-0.074112 -0.1193286,0 -0.150861,-0.00694 -0.1805606,-0.039761 -0.047643,-0.052644 -0.061044,-0.050518 -0.1868814,0.029659 -0.059047,0.037621 -0.1149617,0.063703 -0.1242546,0.05796 -0.00929,-0.00574 -0.016896,-0.5497048 -0.016896,-1.2088033 V 6.5969688 l 0.1043739,-0.051226 c 0.1530483,-0.075115 0.3966848,-0.1048663 0.545572,-0.066622 0.1070168,0.027489 0.1285667,0.043683 0.2946029,0.2213866 l 0.1791403,0.1917283 0.06534,-0.081302 c 0.05984,-0.074469 0.07319,-0.081281 0.158833,-0.081055 0.05142,1.36e-4 0.173951,0.022502 0.272284,0.049702 0.09833,0.0272 0.228294,0.049455 0.288804,0.049455 0.109574,0 0.110561,-5.481e-4 0.245133,-0.1361595 l 0.135116,-0.1361596 -0.09763,-0.062648 c -0.08588,-0.05511 -0.11448,-0.062648 -0.237688,-0.062648 h -0.140059 l -0.08219,-0.1242547 c -0.10981,-0.1660193 -0.151649,-0.213718 -0.187466,-0.213718 -0.07184,0 -0.09036,0.025995 -0.114407,0.1605858 -0.01353,0.075694 -0.03039,0.1376254 -0.03747,0.1376254 -0.0071,0 -0.04137,-0.040439 -0.07621,-0.089865 -0.04439,-0.062984 -0.06719,-0.1225738 -0.07619,-0.1992109 C 10.263319,5.997349 10.258642,5.9902633 10.151306,5.9141182 10.051044,5.8429913 9.9701936,5.813371 9.9701936,5.8477658 c 0,0.00702 0.039705,0.059243 0.088235,0.1160473 l 0.08823,0.1032803 -0.03009,0.1026371 c -0.02354,0.080306 -0.04078,0.1053201 -0.07922,0.1149688 -0.067101,0.016841 -0.075515,0.00185 -0.038807,-0.069132 0.017208,-0.033276 0.031287,-0.069743 0.031287,-0.081035 0,-0.011293 -0.044229,-0.042946 -0.098287,-0.070339 -0.054057,-0.027393 -0.105499,-0.06201 -0.1143143,-0.076926 -0.00882,-0.014916 -0.040576,-0.055901 -0.07058,-0.091077 l -0.054552,-0.063957 -0.1493549,0.033228 c -0.126878,0.028228 -0.1511247,0.04028 -0.1611149,0.080084 -0.00673,0.026801 -0.052464,0.072975 -0.1068594,0.1078807 -0.07632,0.048974 -0.105267,0.08447 -0.1465883,0.1797486 -0.028319,0.065298 -0.060691,0.1187234 -0.071938,0.1187234 -0.02647,0 -0.027892,-0.4911093 -0.00145,-0.5003321 0.011982,-0.00418 0.012157,-0.036003 4.743e-4,-0.08615 -0.030494,-0.1308955 -0.024758,-0.26839 0.011198,-0.26839 0.048888,0 0.2225937,-0.1749678 0.2890878,-0.2911875 L 9.4164419,5.099411 h 0.107885 c 0.059337,0 0.107885,-0.00476 0.107885,-0.010579 0,-0.00582 -0.012939,-0.041546 -0.028753,-0.079395 -0.02654,-0.063519 -0.025875,-0.070356 0.00863,-0.088825 0.055521,-0.029714 0.059881,-0.026202 0.059881,0.048218 V 5.037056 L 9.8220332,5.070442 9.9720966,5.103828 10.095394,5.018845 c 0.179335,-0.1236073 0.192836,-0.1379818 0.193308,-0.2058163 3.61e-4,-0.05172 0.01808,-0.074177 0.111111,-0.1408401 0.06087,-0.04362 0.115729,-0.087477 0.1219,-0.097461 0.01081,-0.017485 -0.09154,-0.00662 -0.188708,0.020032 -0.0411,0.011272 -0.04473,0.00566 -0.04473,-0.069005 0,-0.044701 0.02237,-0.131848 0.0497,-0.1936596 0.02734,-0.061812 0.0497,-0.1157447 0.0497,-0.1198513 0,-0.00411 -0.0246,-0.00743 -0.05467,-0.00738 -0.03819,6.24e-5 -0.09222,0.033586 -0.179214,0.1111883 -0.1619109,0.1444335 -0.1721829,0.1650011 -0.13225,0.2648028 0.03021,0.075509 0.02962,0.086543 -0.01126,0.2093883 L 9.9671379,4.9199253 9.9084643,4.889584 C 9.8532495,4.8610313 9.7852823,4.7953499 9.7234568,4.7107985 9.6973995,4.675163 9.6928765,4.6760268 9.6099743,4.7324716 9.5624853,4.764805 9.5126043,4.7982313 9.4991275,4.8067524 9.4818456,4.8176795 9.4658692,4.791314 9.4449167,4.7172891 9.3808028,4.4907764 9.3696825,4.5201314 9.5708448,4.3848701 9.7361528,4.2737173 9.7515054,4.2579336 9.7515054,4.1991367 c 0,-0.056804 0.014413,-0.073789 0.1242547,-0.1464275 0.088808,-0.058729 0.1737619,-0.094152 0.2977969,-0.1241732 l 0.173542,-0.042003 0.104788,0.040649 c 0.08188,0.031762 0.535258,0.1384304 0.58838,0.1384304 0.006,0 -0.01479,0.026839 -0.04622,0.059642 -0.05211,0.054389 -0.06862,0.059642 -0.187432,0.059642 h -0.130292 l 0.135041,0.134195 0.135041,0.1341951 0.136659,-0.1424625 0.136659,-0.1424625 0.240142,0.2288209 c 0.721269,0.6872678 1.24556,1.6377752 1.429114,2.5908991 0.06883,0.3574279 0.06831,0.331807 0.0082,0.3986626 l -0.05421,0.060294 -0.135109,-0.1495547 -0.135109,-0.1495547 -0.1134,0.011336 -0.1134,0.011336 -0.09866,-0.1011999 c -0.05426,-0.05566 -0.105702,-0.1012 -0.114314,-0.1012 -0.0086,0 -0.01566,0.065909 -0.01566,0.1464636 v 0.1464639 l 0.08449,0.054346 c 0.04647,0.02989 0.120279,0.094035 0.164016,0.1425429 l 0.07952,0.088197 0.07362,-0.091792 0.07362,-0.091791 0.03372,0.076145 c 0.01855,0.04188 0.03775,0.1344777 0.04268,0.205773 0.0088,0.1266748 0.0072,0.1317547 -0.0682,0.2230005 -0.04244,0.051355 -0.152924,0.1465752 -0.245525,0.2116 -0.0926,0.065025 -0.217229,0.168168 -0.276952,0.2292071 l -0.108587,0.1109802 -0.07234,-0.070635 -0.07234,-0.070635 0.03031,-0.1089015 0.03031,-0.1089014 -0.08163,-0.083805 C 11.744184,7.9150128 11.689651,7.8180393 11.599626,7.6129593 11.499177,7.3841361 11.455831,7.3100072 11.361315,7.205404 11.252346,7.0848064 11.243824,7.0794547 11.211258,7.1111707 c -0.03276,0.031907 -0.03216,0.041935 0.01178,0.196249 0.03385,0.1188898 0.06842,0.1900436 0.128537,0.2645857 0.05067,0.062823 0.103674,0.1629706 0.138095,0.2608978 0.03072,0.087415 0.09812,0.257395 0.149769,0.3777341 l 0.0939,0.2187986 0.28145,-0.00158 0.28145,-0.00158 v 0.073631 c 0,0.1018102 -0.221543,0.5953255 -0.331839,0.7392128 -0.048,0.06262 -0.131642,0.2035955 -0.185869,0.3132782 l -0.09859,0.1994227 v 0.3001544 c 0,0.20572 0.0096,0.337287 0.03058,0.418173 0.02944,0.113608 0.02902,0.120205 -0.0111,0.176554 -0.02292,0.03219 -0.09637,0.09059 -0.16321,0.129762 -0.06684,0.03917 -0.169652,0.112339 -0.22847,0.162589 l -0.106942,0.09136 0.09273,0.09414 0.09273,0.09414 -0.07681,0.06936 c -0.04225,0.03815 -0.09787,0.0864 -0.123614,0.107229 -0.04253,0.03441 -0.04488,0.04482 -0.02574,0.114135 l 0.02106,0.07627 -0.183007,0.215503 -0.183007,0.215504 -0.124556,6.04e-4 c -0.100962,4.91e-4 -0.144573,0.0119 -0.230236,0.06025 -0.05812,0.0328 -0.134032,0.05964 -0.168685,0.05964 -0.06134,0 -0.06301,-0.0023 -0.06301,-0.08876 z"
     id="path7" />
  <path
     style="fill:#ffc0cb;fill-opacity:1;stroke-width:0.0198807"
     d="M 3.66673,7.7758456 C 3.5839264,7.7525883 3.4365267,7.687228 3.3386977,7.630389 3.1947782,7.5467711 3.150324,7.509256 3.1046204,7.4328509 3.0485392,7.3390965 3.0483414,7.3375766 3.0714863,7.1782183 3.1241413,6.8156754 3.2808546,6.3027661 3.4526452,5.9307178 3.7758864,5.2306712 4.2007523,4.6758235 4.8199267,4.1451353 4.8773358,4.0959305 4.9368664,4.04385 4.9522168,4.029401 c 0.01535,-0.014449 0.02791,-0.017289 0.02791,-0.00631 0,0.010979 0.018941,0.025973 0.042091,0.03332 0.037262,0.011826 0.041004,0.02467 0.032618,0.1119519 -0.012757,0.132764 -0.098732,0.2190111 -0.3862669,0.3874892 l -0.2220948,0.1301342 0.026901,0.089384 c 0.014795,0.049161 0.029748,0.091571 0.033228,0.094243 0.00348,0.00267 0.073231,0.032402 0.1550036,0.066067 0.1435253,0.059087 0.1494374,0.06419 0.1706357,0.1472607 0.038624,0.1513561 0.039388,0.15152 0.1048175,0.022475 0.053327,-0.1051751 0.075954,-0.1291817 0.1545096,-0.1639306 0.083378,-0.036882 0.091017,-0.045861 0.081225,-0.095468 -0.00815,-0.041308 0.011353,-0.092744 0.07942,-0.2094151 l 0.090228,-0.1546577 0.092203,0.052927 c 0.124867,0.071677 0.1222516,0.067826 0.1032604,0.152032 -0.00925,0.040995 -0.013611,0.074535 -0.0097,0.074535 0.00391,0 0.05107,-0.017327 0.1047977,-0.038505 l 0.097687,-0.038505 0.034325,0.076119 c 0.022855,0.050683 0.029797,0.096734 0.020776,0.1378083 -0.011848,0.053945 -0.00708,0.064149 0.037997,0.081287 0.028351,0.010779 0.07742,0.038727 0.1090433,0.062107 0.050127,0.037061 0.055103,0.049376 0.03882,0.096084 -0.015234,0.043701 -0.043547,0.061585 -0.1536276,0.097039 -0.074223,0.023905 -0.1790484,0.04331 -0.2329447,0.043122 -0.068684,-2.396e-4 -0.1408988,0.019085 -0.2414467,0.064612 -0.078899,0.035725 -0.1437604,0.071361 -0.1441354,0.079192 -3.751e-4,0.00783 0.093585,0.016777 0.2087995,0.019881 l 0.2094814,0.00564 -0.059569,0.093852 c -0.034817,0.054855 -0.078491,0.097899 -0.1051075,0.1035913 -0.025046,0.00536 -0.094743,0.019403 -0.1548822,0.031214 C 5.1995297,5.6953602 5.1826625,5.7065742 5.1251081,5.791074 5.0738331,5.866354 5.0387801,5.8934224 4.9461814,5.9292397 4.8328248,5.9730867 4.8301267,5.9759717 4.7738094,6.1135404 4.7231864,6.2371988 4.6988784,6.268075 4.5627778,6.3815929 4.3983321,6.5187525 4.3844403,6.5468518 4.3839243,6.7433646 c -1.204e-4,0.045826 -0.0074,0.087758 -0.016178,0.093183 -0.00878,0.00542 -0.052943,-0.033072 -0.098145,-0.085548 -0.062771,-0.072873 -0.1000934,-0.098405 -0.1579972,-0.1080833 -0.041696,-0.00697 -0.096034,-0.018218 -0.1207505,-0.024996 -0.037242,-0.010213 -0.048642,-0.0017 -0.066557,0.049691 -0.020325,0.058306 -0.027577,0.062015 -0.1212372,0.062015 -0.08708,0 -0.1152924,0.011508 -0.2241482,0.091436 -0.1190997,0.087449 -0.1250659,0.095901 -0.1368326,0.1938372 -0.031071,0.2586122 -0.014342,0.3314636 0.089519,0.3898366 0.06954,0.039084 0.08634,0.041453 0.1390704,0.019611 0.032987,-0.013664 0.087637,-0.059263 0.1214442,-0.1013322 0.041284,-0.051372 0.07754,-0.076489 0.1104109,-0.076489 0.048229,0 0.048745,0.00181 0.035376,0.1242547 -0.00746,0.06834 -0.018511,0.1565813 -0.024555,0.1960915 l -0.010989,0.071837 0.1015104,-0.00975 0.1015103,-0.00975 v 0.089392 c 0,0.087852 -0.00128,0.089604 -0.074553,0.1017143 -0.1163955,0.019239 -0.2015968,0.011173 -0.364091,-0.034467 z"
     id="path8" />
  <path
     style="fill:#ffc0cb;fill-opacity:1;stroke-width:0.0198807"
     d="m 6.5025576,4.4515107 -0.09785,-0.1883579 0.072999,-0.074758 c 0.059583,-0.061018 0.072999,-0.089451 0.072999,-0.1547052 0,-0.078738 -0.00285,-0.081883 -0.1886802,-0.2079096 L 6.1733451,3.6978186 6.2374362,3.6448453 C 6.3238283,3.5734396 6.821579,3.4392817 7.1371874,3.4023369 l 0.238569,-0.027927 0.2087478,0.080006 c 0.1148113,0.044003 0.2109008,0.081647 0.2135321,0.083652 0.00263,0.00201 -0.039995,0.1148135 -0.094725,0.2506847 L 7.6038023,4.035791 7.4301373,4.108871 C 7.3346211,4.1490651 7.1712506,4.2110402 7.0670912,4.2465936 l -0.1893808,0.064643 -0.080309,0.130312 c -0.04417,0.071672 -0.1065629,0.145614 -0.1386515,0.1643163 l -0.058343,0.034004 z"
     id="path9" />
</svg>
