<?xml version="1.0" encoding="UTF-8" standalone="no"?>
<svg
   height="16px"
   viewBox="0 0 16 16"
   width="16px"
   version="1.1"
   id="svg13"
   sodipodi:docname="RaspberryPi.svg"
   inkscape:version="1.3.2 (091e20ef0f, 2023-11-25)"
   xmlns:inkscape="http://www.inkscape.org/namespaces/inkscape"
   xmlns:sodipodi="http://sodipodi.sourceforge.net/DTD/sodipodi-0.dtd"
   xmlns="http://www.w3.org/2000/svg"
   xmlns:svg="http://www.w3.org/2000/svg">
  <defs
     id="defs13" />
  <sodipodi:namedview
     id="namedview13"
     pagecolor="#ffffff"
     bordercolor="#000000"
     borderopacity="0.25"
     inkscape:showpageshadow="2"
     inkscape:pageopacity="0.0"
     inkscape:pagecheckerboard="0"
     inkscape:deskcolor="#d1d1d1"
     inkscape:zoom="50.25"
     inkscape:cx="8"
     inkscape:cy="8"
     inkscape:window-width="1920"
     inkscape:window-height="1008"
     inkscape:window-x="0"
     inkscape:window-y="0"
     inkscape:window-maximized="1"
     inkscape:current-layer="svg13" />
  <filter
     id="a"
     height="1"
     width="1"
     x="0"
     y="0">
    <feColorMatrix
       color-interpolation-filters="sRGB"
       values="0 0 0 0 1 0 0 0 0 1 0 0 0 0 1 0 0 0 1 0"
       id="feColorMatrix1" />
  </filter>
  <mask
     id="b">
    <g
       filter="url(#a)"
       id="g1">
      <path
         d="m -1.6 -1.6 h 19.2 v 19.2 h -19.2 z"
         fill-opacity="0.5"
         id="path1" />
    </g>
  </mask>
  <clipPath
     id="c">
    <path
       d="m 0 0 h 1600 v 1200 h -1600 z"
       id="path2" />
  </clipPath>
  <mask
     id="d">
    <g
       filter="url(#a)"
       id="g3">
      <path
         d="m -1.6 -1.6 h 19.2 v 19.2 h -19.2 z"
         fill-opacity="0.7"
         id="path3" />
    </g>
  </mask>
  <clipPath
     id="e">
    <path
       d="m 0 0 h 1600 v 1200 h -1600 z"
       id="path4" />
  </clipPath>
  <mask
     id="f">
    <g
       filter="url(#a)"
       id="g5">
      <path
         d="m -1.6 -1.6 h 19.2 v 19.2 h -19.2 z"
         fill-opacity="0.35"
         id="path5" />
    </g>
  </mask>
  <clipPath
     id="g">
    <path
       d="m 0 0 h 1600 v 1200 h -1600 z"
       id="path6" />
  </clipPath>
  <g
     mask="url(#b)"
     id="g8">
    <g
       clip-path="url(#c)"
       transform="matrix(1 0 0 1 -140 -476)"
       id="g7">
      <path
         d="m 550 182 c -0.351562 0.003906 -0.695312 0.101562 -1 0.28125 v 3.4375 c 0.304688 0.179688 0.648438 0.277344 1 0.28125 c 1.105469 0 2 -0.894531 2 -2 s -0.894531 -2 -2 -2 z m 0 5 c -0.339844 0 -0.679688 0.058594 -1 0.175781 v 6.824219 h 4 v -4 c 0 -1.65625 -1.34375 -3 -3 -3 z m 0 0"
         id="path7" />
    </g>
  </g>
  <g
     mask="url(#d)"
     id="g10">
    <g
       clip-path="url(#e)"
       transform="matrix(1 0 0 1 -140 -476)"
       id="g9">
      <path
         d="m 569 182 v 4 c 1.105469 0 2 -0.894531 2 -2 s -0.894531 -2 -2 -2 z m 0 5 v 7 h 3 v -4 c 0 -1.65625 -1.34375 -3 -3 -3 z m 0 0"
         id="path8" />
    </g>
  </g>
  <g
     mask="url(#f)"
     id="g12">
    <g
       clip-path="url(#g)"
       transform="matrix(1 0 0 1 -140 -476)"
       id="g11">
      <path
         d="m 573 182.269531 v 3.449219 c 0.613281 -0.355469 0.996094 -1.007812 1 -1.71875 c 0 -0.714844 -0.382812 -1.375 -1 -1.730469 z m 0 4.90625 v 6.824219 h 2 v -4 c 0 -1.269531 -0.800781 -2.402344 -2 -2.824219 z m 0 0"
         id="path10" />
    </g>
  </g>
  <g
     fill="#2e3436"
     id="g13"
     style="fill:#ffbfca;fill-opacity:1">
    <path
       d="m 8.03125 0.996094 c -0.03125 0 -0.066406 0 -0.101562 0.003906 c -0.515626 0.042969 -0.914063 0.472656 -0.917969 0.992188 l -0.007813 1.007812 h -1.988281 l 0.019531 -0.980469 c 0.003906 -0.28125 -0.109375 -0.554687 -0.3125 -0.746093 c -0.203125 -0.195313 -0.480468 -0.292969 -0.761718 -0.269532 c -0.515626 0.035156 -0.917969 0.460938 -0.925782 0.980469 l -0.023437 1.277344 c -1.183594 0.503906 -2.011719 1.671875 -2.011719 3.046875 v 4.386718 c 0 1.375 0.832031 2.546876 2.019531 3.046876 v 1.257812 c 0 0.550781 0.449219 1 1 1 c 0.554688 0 1 -0.449219 1 -1 v -1 h 1.980469 v 1 c 0 0.550781 0.449219 1 1 1 s 1 -0.449219 1 -1 v -1 h 2 v 1 c 0 0.550781 0.449219 1 1 1 s 1 -0.449219 1 -1 v -1.265625 c 1.179688 -0.507813 2 -1.675781 2 -3.039063 v -4.386718 c 0 -1.367188 -0.820312 -2.53125 -1.996094 -3.035156 l 0.011719 -1.265626 c 0 -0.28125 -0.113281 -0.550781 -0.320313 -0.742187 c -0.207031 -0.191406 -0.484374 -0.289063 -0.765624 -0.265625 c -0.515626 0.042969 -0.914063 0.472656 -0.914063 0.992188 l -0.011719 1.007812 h -1.996094 l 0.007813 -0.992188 c 0.003906 -0.550781 -0.433594 -1 -0.980469 -1.011718 z m -3.722656 4.003906 h 7.386718 c 0.722657 0 1.304688 0.582031 1.304688 1.308594 v 4.386718 c 0 0.257813 -0.074219 0.5 -0.207031 0.699219 c -0.1875 -0.246093 -0.480469 -0.394531 -0.792969 -0.394531 c -0.550781 0 -1 0.449219 -1 1 h -2 c 0 -0.550781 -0.449219 -1 -1 -1 s -1 0.449219 -1 1 h -1.980469 c 0 -0.550781 -0.445312 -1 -1 -1 c -0.316406 0.003906 -0.613281 0.160156 -0.800781 0.417969 c -0.136719 -0.207031 -0.21875 -0.457031 -0.21875 -0.722657 v -4.386718 c 0 -0.726563 0.582031 -1.308594 1.308594 -1.308594 z m 0 0"
       id="path12"
       style="fill:#ffbfca;fill-opacity:1" />
    <path
       d="m 3 10 c 0 0.546875 0.46875 1 1.019531 1 h 7.980469 c 0.59375 0 1 -0.515625 1 -1 h 1 v 0.933594 l -2 2.046875 l -8 0.019531 l -2 -2.304688 v -0.695312 z m 0 0"
       id="path13"
       style="fill:#ffbfca;fill-opacity:1" />
  </g>
</svg>
