<?xml version="1.0" encoding="UTF-8" standalone="no"?>
<svg
   height="16px"
   viewBox="0 0 16 16"
   width="16px"
   version="1.1"
   id="svg6"
   sodipodi:docname="Server.svg"
   inkscape:version="1.3.2 (091e20ef0f, 2023-11-25)"
   xmlns:inkscape="http://www.inkscape.org/namespaces/inkscape"
   xmlns:sodipodi="http://sodipodi.sourceforge.net/DTD/sodipodi-0.dtd"
   xmlns="http://www.w3.org/2000/svg"
   xmlns:svg="http://www.w3.org/2000/svg">
  <defs
     id="defs6" />
  <sodipodi:namedview
     id="namedview6"
     pagecolor="#ffffff"
     bordercolor="#000000"
     borderopacity="0.25"
     inkscape:showpageshadow="2"
     inkscape:pageopacity="0.0"
     inkscape:pagecheckerboard="0"
     inkscape:deskcolor="#d1d1d1"
     inkscape:zoom="50.125"
     inkscape:cx="7.9900249"
     inkscape:cy="8"
     inkscape:window-width="1920"
     inkscape:window-height="1006"
     inkscape:window-x="0"
     inkscape:window-y="0"
     inkscape:window-maximized="1"
     inkscape:current-layer="svg6" />
  <g
     fill="#222222"
     id="g6"
     style="fill:#ffbec9;fill-opacity:1">
    <path
       d="m 7.996094 12 c -0.703125 0 -1.355469 0.371094 -1.714844 0.972656 h -3.285156 c -0.554688 0 -1 0.449219 -1 1 c 0 0.550782 0.445312 1 1 1 h 3.246094 c 0.351562 0.640625 1.023437 1.035156 1.753906 1.039063 c 0.726562 -0.003907 1.398437 -0.398438 1.75 -1.039063 h 3.261718 c 0.550782 0 1 -0.449218 1 -1 c 0 -0.550781 -0.449218 -1 -1 -1 h -3.292968 c -0.363282 -0.601562 -1.015625 -0.972656 -1.71875 -0.972656 z m 0 1 c 0.554687 0 1.003906 0.449219 1.003906 1.007812 c 0 0.554688 -0.449219 1.003907 -1.003906 1.003907 c -0.558594 0 -1.007813 -0.449219 -1.007813 -1.003907 c 0 -0.558593 0.449219 -1.007812 1.007813 -1.007812 z m 0 0"
       id="path1"
       style="fill:#ffbec9;fill-opacity:1" />
    <path
       d="m 3.027344 5.011719 c -1.652344 0 -3.011719 1.359375 -3.011719 3.011719 c 0 1.652343 1.359375 3.011718 3.011719 3.011718 h 9.960937 c 1.652344 0 3.011719 -1.359375 3.011719 -3.011718 c 0 -1.652344 -1.359375 -3.011719 -3.011719 -3.011719 z m 0 2 h 9.960937 c 0.578125 0 1.011719 0.433593 1.011719 1.011719 c 0 0.578124 -0.433594 1.011718 -1.011719 1.011718 h -9.960937 c -0.578125 0 -1.011719 -0.433594 -1.011719 -1.011718 c 0 -0.578126 0.433594 -1.011719 1.011719 -1.011719 z m 0 0"
       id="path2"
       style="fill:#ffbec9;fill-opacity:1" />
    <path
       d="m 3.027344 0 c -1.652344 0 -3.011719 1.359375 -3.011719 3.011719 c 0 1.652343 1.359375 3.011719 3.011719 3.011719 h 9.960937 c 1.652344 0 3.011719 -1.359376 3.011719 -3.011719 c 0 -1.652344 -1.359375 -3.011719 -3.011719 -3.011719 z m 0 2 h 9.960937 c 0.578125 0 1.011719 0.433594 1.011719 1.011719 s -0.433594 1.011719 -1.011719 1.011719 h -9.960937 c -0.578125 0 -1.011719 -0.433594 -1.011719 -1.011719 s 0.433594 -1.011719 1.011719 -1.011719 z m 0 0"
       id="path3"
       style="fill:#ffbec9;fill-opacity:1" />
    <path
       d="m 6.992188 10 h 2.007812 v 3 h -2.007812 z m 0 0"
       id="path4"
       style="fill:#ffbec9;fill-opacity:1" />
    <path
       d="m 3 1 c -1.097656 0 -2 0.902344 -2 2 s 0.902344 2 2 2 s 2 -0.902344 2 -2 s -0.902344 -2 -2 -2 z m 0 1 c 0.558594 0 1 0.441406 1 1 s -0.441406 1 -1 1 s -1 -0.441406 -1 -1 s 0.441406 -1 1 -1 z m 0 0"
       id="path5"
       style="fill:#ffbec9;fill-opacity:1" />
    <path
       d="m 3 6 c -1.097656 0 -2 0.902344 -2 2 s 0.902344 2 2 2 s 2 -0.902344 2 -2 s -0.902344 -2 -2 -2 z m 0 1 c 0.558594 0 1 0.441406 1 1 s -0.441406 1 -1 1 s -1 -0.441406 -1 -1 s 0.441406 -1 1 -1 z m 0 0"
       id="path6"
       style="fill:#ffbec9;fill-opacity:1" />
  </g>
</svg>
