<?xml version="1.0" encoding="UTF-8" standalone="no"?>
<!-- Created with Inkscape (http://www.inkscape.org/) -->

<svg
   version="1.0"
   width="166.15625"
   height="166.1875"
   id="svg2424"
   sodipodi:docname="archLinux.svg"
   inkscape:version="1.3.2 (091e20ef0f, 2023-11-25)"
   xmlns:inkscape="http://www.inkscape.org/namespaces/inkscape"
   xmlns:sodipodi="http://sodipodi.sourceforge.net/DTD/sodipodi-0.dtd"
   xmlns:xlink="http://www.w3.org/1999/xlink"
   xmlns="http://www.w3.org/2000/svg"
   xmlns:svg="http://www.w3.org/2000/svg">
  <sodipodi:namedview
     id="namedview1"
     pagecolor="#ffffff"
     bordercolor="#000000"
     borderopacity="0.25"
     inkscape:showpageshadow="2"
     inkscape:pageopacity="0.0"
     inkscape:pagecheckerboard="0"
     inkscape:deskcolor="#d1d1d1"
     inkscape:zoom="2.3483333"
     inkscape:cx="85.379703"
     inkscape:cy="58.977999"
     inkscape:window-width="1920"
     inkscape:window-height="1011"
     inkscape:window-x="0"
     inkscape:window-y="0"
     inkscape:window-maximized="1"
     inkscape:current-layer="g2424" />
  <defs
     id="defs2426">
    <linearGradient
       x1="112.49854"
       y1="6.1372099"
       x2="112.49853"
       y2="129.3468"
       id="path1082_2_"
       gradientUnits="userSpaceOnUse"
       gradientTransform="translate(287,-83)">
      <stop
         id="stop193"
         style="stop-color:#ffffff;stop-opacity:0"
         offset="0" />
      <stop
         id="stop195"
         style="stop-color:#ffffff;stop-opacity:0.27450982"
         offset="1" />
      <midPointStop
         offset="0"
         style="stop-color:#FFFFFF"
         id="midPointStop197" />
      <midPointStop
         offset="0.5"
         style="stop-color:#FFFFFF"
         id="midPointStop199" />
      <midPointStop
         offset="1"
         style="stop-color:#000000"
         id="midPointStop201" />
    </linearGradient>
    <linearGradient
       x1="541.33502"
       y1="104.50665"
       x2="606.91248"
       y2="303.14029"
       id="linearGradient2544"
       xlink:href="#path1082_2_"
       gradientUnits="userSpaceOnUse"
       gradientTransform="matrix(-0.3937741,0,0,0.393752,357.51969,122.00151)" />
    <linearGradient
       id="linearGradient3388">
      <stop
         id="stop3390"
         style="stop-color:#000000;stop-opacity:0"
         offset="0" />
      <stop
         id="stop3392"
         style="stop-color:#000000;stop-opacity:0.37113401"
         offset="1" />
    </linearGradient>
    <linearGradient
       x1="490.72305"
       y1="237.72447"
       x2="490.72305"
       y2="183.9644"
       id="linearGradient4416"
       xlink:href="#linearGradient3388"
       gradientUnits="userSpaceOnUse"
       gradientTransform="matrix(0.749107,0,0,0.749107,-35.459862,91.44108)" />
  </defs>
  <g
     transform="translate(-57.527313,-146.42741)"
     id="layer1">
    <g
       transform="matrix(0.8746356,0,0,0.8746356,14.730518,23.408954)"
       id="g2424"
       style="fill:#000000">
      <path
         d="m 105.8125,16.625 c -7.39687,18.135158 -11.858304,29.997682 -20.09375,47.59375 5.04936,5.35232 11.247211,11.585364 21.3125,18.625 C 96.210077,78.390904 88.828713,73.920352 83.3125,69.28125 72.7727,91.274163 56.259864,122.60209 22.75,182.8125 49.087628,167.60733 69.504089,158.23318 88.53125,154.65625 87.714216,151.1422 87.2497,147.34107 87.28125,143.375 l 0.03125,-0.84375 c 0.417917,-16.87382 9.195665,-29.84979 19.59375,-28.96875 10.39809,0.88104 18.48041,15.28242 18.0625,32.15625 -0.0786,3.17512 -0.43674,6.22955 -1.0625,9.0625 18.82058,3.68164 39.01873,13.03179 65,28.03125 -5.123,-9.4318 -9.69572,-17.93388 -14.0625,-26.03125 -6.87839,-5.33121 -14.05289,-12.2698 -28.6875,-19.78125 10.05899,2.61375 17.2611,5.62932 22.875,9 C 124.63297,63.338161 121.03766,52.354109 105.8125,16.625 Z"
         transform="matrix(1.1433333,0,0,1.1433333,22.920168,121.64318)"
         id="path2518"
         style="fill:var(--main-pink);fill-opacity:1;fill-rule:evenodd;stroke:none" />
      <path
         style="fill:#ffc0cb;stroke-width:0.425834"
         d="M 1.5354867,164.05252 C 1.8109635,163.52555 4.9530725,157.8247 8.5179514,151.38396 28.78953,114.75889 42.8061,88.584772 52.871617,68.559263 56.991863,60.36196 60.443801,53.566042 60.542581,53.45722 c 0.09878,-0.108822 0.433035,-0.01301 0.742787,0.212917 6.634582,4.839087 18.641647,11.531506 22.178082,12.361474 1.034044,0.242682 0.709431,-0.12873 -1.703335,-1.948902 C 76.440073,60.069314 72.908607,57.051007 68.007331,52.32836 L 63.197064,47.6934 66.557762,40.241306 C 69.896573,32.837741 73.923101,23.26633 79.934833,8.4428054 L 83.07337,0.70392171 89.095543,14.830314 c 13.265167,31.116499 24.488887,53.93567 49.670887,100.986866 3.6323,6.78675 6.5679,12.37527 6.52356,12.41895 -0.0443,0.0437 -1.90106,-0.79193 -4.12604,-1.85691 -4.37094,-2.09213 -16.29764,-6.20326 -17.38732,-5.99341 -0.36799,0.0709 0.56216,0.78435 2.07086,1.58848 6.5962,3.51574 13.36803,8.15744 22.40773,15.35924 l 3.47169,2.76583 6.66515,12.29042 c 3.66583,6.75973 6.5852,12.37037 6.48749,12.46807 -0.0977,0.0977 -3.12628,-1.47071 -6.73016,-3.48539 -20.02919,-11.19691 -38.15572,-18.97814 -51.82107,-22.24539 l -4.83864,-1.15688 0.26445,-1.49042 c 0.6321,-3.5625 0.75938,-11.22353 0.24914,-14.99555 -1.09286,-8.07913 -4.32016,-15.61002 -8.515582,-19.87108 -3.247406,-3.298224 -5.724081,-4.466828 -9.890211,-4.666638 -2.819063,-0.135202 -3.606413,-0.0042 -5.68082,0.945543 -5.141417,2.353815 -9.977217,9.290605 -12.205917,17.508955 -0.808215,2.98029 -0.919132,4.44596 -0.886207,11.71043 0.0207,4.56707 0.102984,8.84449 0.182849,9.50538 l 0.145209,1.20162 -6.387509,1.63647 c -14.747042,3.77817 -29.935048,10.32541 -50.3462136,21.70325 -3.8011342,2.11887 -7.0175997,3.8525 -7.1477008,3.8525 -0.1301012,0 -0.011158,-0.43116 0.2643191,-0.95813 z"
         id="path1"
         transform="matrix(1.1433333,0,0,1.1433333,48.931001,140.6511)" />
    </g>
  </g>
</svg>
