<?xml version="1.0" encoding="UTF-8" standalone="no"?>
<svg
   width="12.043002"
   height="12.026528"
   version="1.0"
   id="svg10"
   sodipodi:docname="fedora.svg"
   inkscape:version="1.3.2 (091e20ef0f, 2023-11-25)"
   xmlns:inkscape="http://www.inkscape.org/namespaces/inkscape"
   xmlns:sodipodi="http://sodipodi.sourceforge.net/DTD/sodipodi-0.dtd"
   xmlns="http://www.w3.org/2000/svg"
   xmlns:svg="http://www.w3.org/2000/svg"
   xmlns:rdf="http://www.w3.org/1999/02/22-rdf-syntax-ns#"
   xmlns:cc="http://creativecommons.org/ns#"
   xmlns:dc="http://purl.org/dc/elements/1.1/">
  <metadata
     id="metadata16">
    <rdf:RDF>
      <cc:Work
         rdf:about="">
        <dc:format>image/svg+xml</dc:format>
        <dc:type
           rdf:resource="http://purl.org/dc/dcmitype/StillImage" />
        <dc:title />
      </cc:Work>
    </rdf:RDF>
  </metadata>
  <defs
     id="defs14" />
  <sodipodi:namedview
     pagecolor="#ffffff"
     bordercolor="#666666"
     borderopacity="1"
     objecttolerance="10"
     gridtolerance="10"
     guidetolerance="10"
     inkscape:pageopacity="0"
     inkscape:pageshadow="2"
     inkscape:window-width="1920"
     inkscape:window-height="1011"
     id="namedview12"
     showgrid="false"
     inkscape:zoom="45.343222"
     inkscape:cx="6.0317725"
     inkscape:cy="7.0462571"
     inkscape:window-x="0"
     inkscape:window-y="0"
     inkscape:window-maximized="1"
     inkscape:current-layer="svg10"
     inkscape:showpageshadow="2"
     inkscape:pagecheckerboard="0"
     inkscape:deskcolor="#d1d1d1" />
  <path
     id="path28"
     style="fill:var(--main-pink);fill-opacity:1;fill-rule:nonzero;stroke:none;stroke-width:1.33333"
     d="M 6.0215003,0 C 2.6974069,0 0.0025424,2.689907 0,6.009145 v 4.653578 c 0.00187,0.753371 0.6137513,1.363805 1.3689144,1.363805 0.00187,0 0.00477,-2.35e-4 0.00656,-2.35e-4 v 2.35e-4 H 6.0236368 C 9.3481077,12.024628 12.043002,9.333613 12.043002,6.01334 12.043002,2.692315 9.3470987,7.7e-5 6.0215013,7.7e-5 Z m 1.2206519,2.474175 v 7.7e-5 c 1.0112185,0 1.9661605,0.774318 1.9661605,1.840779 0,0.09887 -0.0011,0.197277 -0.01693,0.309796 -0.02798,0.283641 -0.287396,0.486923 -0.570019,0.446847 -0.282903,-0.04046 -0.47501,-0.307971 -0.422442,-0.588322 0.0045,-0.03161 0.0066,-0.08196 0.0066,-0.168321 0,-0.604541 -0.4945538,-0.83825 -0.963327,-0.83825 -0.4684928,0 -0.8907969,0.392402 -0.8923991,0.837106 v 1.539447 l 0.869214,-0.0058 c 0.6785703,-0.01402 0.6855131,1.007329 0.00694,1.002528 l -0.8761542,0.0055 -0.00625,1.436105 C 6.2386515,9.418809 5.2777102,10.320291 4.1232978,10.320291 2.8997379,10.320291 1.8903557,9.3207 1.8903557,8.095814 1.9271897,6.835741 2.935469,5.844903 4.2020815,5.856771 l 0.7055451,-0.0049 v 1.001004 l -0.7114177,0.0062 C 3.4999262,6.879585 2.9045917,7.351136 2.893189,8.095666 c 0,0.678768 0.5493755,1.221949 1.2304902,1.221949 0.6804556,0 1.2237024,-0.494317 1.2237024,-1.220499 V 4.31054 C 5.347694,4.24036 5.3510416,4.184124 5.3591266,4.106603 5.4734931,3.180127 6.3030075,2.47411 7.2421564,2.47411 Z" />
  <path
     style="fill:#ffc0cb;stroke-width:0.022054"
     d="M 1.0428985,11.974195 C 0.67377629,11.884701 0.32932882,11.603418 0.15307611,11.247547 0.00722151,10.953052 0.01182536,11.049859 0.0114853,8.2702548 0.01129489,6.7137525 0.01986805,5.6594917 0.03399266,5.5024762 0.20834084,3.5643429 1.2822171,1.8550991 2.9526274,0.85700754 3.614405,0.46158689 4.3568481,0.19732038 5.152797,0.07387511 5.6061942,0.00355689 6.4324728,0.00304913 6.880852,0.0728132 c 1.5810489,0.24599802 2.9256728,1.0318096 3.894666,2.2760816 1.147266,1.4731889 1.538905,3.4355964 1.04517,5.2370917 -0.210039,0.7663708 -0.604869,1.54095 -1.107248,2.1722012 -0.20533,0.2580033 -0.679947,0.7336303 -0.9324853,0.9344713 -0.79753,0.634267 -1.7823125,1.075927 -2.7567516,1.236361 -0.457316,0.07529 -0.6130658,0.07902 -3.2309129,0.07737 -2.1561432,-0.0014 -2.6469037,-0.0071 -2.7503917,-0.0322 z M 4.4769646,10.29982 C 5.418465,10.146573 6.164601,9.4059796 6.3302125,8.4603386 c 0.023914,-0.1365492 0.03237,-0.3684412 0.03237,-0.887674 V 6.869825 h 0.4270431 c 0.2348737,0 0.4805003,-0.00999 0.5458368,-0.02221 C 7.5842934,6.8010923 7.7355076,6.6157705 7.7353727,6.3575012 7.7352556,6.1331837 7.6542415,5.9875461 7.4763104,5.8917886 7.3945014,5.8477615 7.3507813,5.8438057 6.8743624,5.8373247 l -0.5137321,-0.00699 0.00649,-0.8420908 0.00649,-0.8420908 0.059455,-0.1268688 C 6.5163225,3.8416251 6.6849195,3.6710402 6.8649398,3.5823178 6.987359,3.5219842 7.0453328,3.5075611 7.197814,3.4995036 7.6259237,3.4768816 7.9555445,3.6410769 8.109437,3.9536138 8.179838,4.09659 8.182151,4.1100987 8.185749,4.399282 8.187789,4.5633045 8.200876,4.7272335 8.21483,4.7635691 8.260764,4.8831817 8.3512837,4.9773779 8.4745025,5.0337894 8.7700995,5.1691181 9.1030661,5.0146554 9.1869034,4.7033074 9.1997549,4.6555792 9.210158,4.4908461 9.2100213,4.3372337 9.2096446,3.9145485 9.1256201,3.6382924 8.896729,3.30719 8.6383901,2.9334892 8.2335832,2.6579276 7.7578995,2.5319617 7.4664103,2.4547724 7.0377262,2.4506803 6.7705819,2.5225369 6.0843098,2.707131 5.5760704,3.2092684 5.3860222,3.8904736 5.340308,4.054331 5.3390315,4.104733 5.3267692,6.2302586 5.3156086,8.1648287 5.310315,8.4124057 5.2784017,8.4923663 5.1160978,8.899028 4.8340952,9.1622276 4.4531143,9.2626261 4.2810577,9.3079674 3.959592,9.3073093 3.8043172,9.2612978 3.5866423,9.1967955 3.3955031,9.0803882 3.2445917,8.9204139 2.8477352,8.4997253 2.795849,7.9156318 3.1129358,7.4383371 3.2305031,7.2613691 3.3667056,7.1397921 3.5637565,7.0359261 3.8070014,6.9077109 3.9174556,6.8871689 4.4438836,6.8722426 l 0.4741613,-0.013445 0.00593,-0.5022616 c 0.00495,-0.4192331 7.121e-4,-0.5042633 -0.025629,-0.5143715 -0.017357,-0.00666 -0.2780568,-0.00236 -0.5793331,0.00956 -0.597486,0.023634 -0.7314141,0.046753 -1.0576937,0.1825836 -0.5062823,0.210766 -0.9723912,0.680803 -1.1958537,1.2059324 -0.1312433,0.308417 -0.1689961,0.5086881 -0.1671443,0.886665 0.00179,0.3647562 0.030748,0.5225857 0.150126,0.8181349 0.1424017,0.352551 0.5049267,0.7986808 0.8095411,0.9962353 0.5043594,0.3270973 1.058382,0.4497943 1.6189776,0.3585463 z"
     id="path1" />
</svg>
