<?xml version="1.0" encoding="UTF-8" standalone="no"?>
<svg
   width="12.043002"
   height="12.026528"
   version="1.0"
   id="svg10"
   sodipodi:docname="fedora.svg"
   inkscape:version="1.3 (0e150ed6c4, 2023-07-21)"
   xmlns:inkscape="http://www.inkscape.org/namespaces/inkscape"
   xmlns:sodipodi="http://sodipodi.sourceforge.net/DTD/sodipodi-0.dtd"
   xmlns="http://www.w3.org/2000/svg"
   xmlns:svg="http://www.w3.org/2000/svg"
   xmlns:rdf="http://www.w3.org/1999/02/22-rdf-syntax-ns#"
   xmlns:cc="http://creativecommons.org/ns#"
   xmlns:dc="http://purl.org/dc/elements/1.1/">
  <metadata
     id="metadata16">
    <rdf:RDF>
      <cc:Work
         rdf:about="">
        <dc:format>image/svg+xml</dc:format>
        <dc:type
           rdf:resource="http://purl.org/dc/dcmitype/StillImage" />
        <dc:title />
      </cc:Work>
    </rdf:RDF>
  </metadata>
  <defs
     id="defs14" />
  <sodipodi:namedview
     pagecolor="#ffffff"
     bordercolor="#666666"
     borderopacity="1"
     objecttolerance="10"
     gridtolerance="10"
     guidetolerance="10"
     inkscape:pageopacity="0"
     inkscape:pageshadow="2"
     inkscape:window-width="1920"
     inkscape:window-height="1011"
     id="namedview12"
     showgrid="false"
     inkscape:zoom="45.343222"
     inkscape:cx="6.0317725"
     inkscape:cy="7.0462571"
     inkscape:window-x="0"
     inkscape:window-y="0"
     inkscape:window-maximized="1"
     inkscape:current-layer="svg10"
     inkscape:showpageshadow="2"
     inkscape:pagecheckerboard="0"
     inkscape:deskcolor="#d1d1d1" />
  <path
     id="path28"
     style="fill:#ffc0cb;fill-opacity:1;fill-rule:nonzero;stroke:none;stroke-width:1.33333"
     d="M 6.0215003,0 C 2.6974069,0 0.0025424,2.689907 0,6.009145 v 4.653578 c 0.00187,0.753371 0.6137513,1.363805 1.3689144,1.363805 0.00187,0 0.00477,-2.35e-4 0.00656,-2.35e-4 v 2.35e-4 H 6.0236368 C 9.3481077,12.024628 12.043002,9.333613 12.043002,6.01334 12.043002,2.692315 9.3470987,7.7e-5 6.0215013,7.7e-5 Z m 1.2206519,2.474175 v 7.7e-5 c 1.0112185,0 1.9661605,0.774318 1.9661605,1.840779 0,0.09887 -0.0011,0.197277 -0.01693,0.309796 -0.02798,0.283641 -0.287396,0.486923 -0.570019,0.446847 -0.282903,-0.04046 -0.47501,-0.307971 -0.422442,-0.588322 0.0045,-0.03161 0.0066,-0.08196 0.0066,-0.168321 0,-0.604541 -0.4945538,-0.83825 -0.963327,-0.83825 -0.4684928,0 -0.8907969,0.392402 -0.8923991,0.837106 v 1.539447 l 0.869214,-0.0058 c 0.6785703,-0.01402 0.6855131,1.007329 0.00694,1.002528 l -0.8761542,0.0055 -0.00625,1.436105 C 6.2386515,9.418809 5.2777102,10.320291 4.1232978,10.320291 2.8997379,10.320291 1.8903557,9.3207 1.8903557,8.095814 1.9271897,6.835741 2.935469,5.844903 4.2020815,5.856771 l 0.7055451,-0.0049 v 1.001004 l -0.7114177,0.0062 C 3.4999262,6.879585 2.9045917,7.351136 2.893189,8.095666 c 0,0.678768 0.5493755,1.221949 1.2304902,1.221949 0.6804556,0 1.2237024,-0.494317 1.2237024,-1.220499 V 4.31054 C 5.347694,4.24036 5.3510416,4.184124 5.3591266,4.106603 5.4734931,3.180127 6.3030075,2.47411 7.2421564,2.47411 Z" />
</svg>
