<?xml version="1.0" encoding="UTF-8" standalone="no"?>
<svg
   height="16px"
   viewBox="0 0 16 16"
   width="16px"
   version="1.1"
   id="svg12"
   sodipodi:docname="penguin-alt-symbolic.svg"
   inkscape:version="1.3.2 (091e20ef0f, 2023-11-25)"
   xmlns:inkscape="http://www.inkscape.org/namespaces/inkscape"
   xmlns:sodipodi="http://sodipodi.sourceforge.net/DTD/sodipodi-0.dtd"
   xmlns="http://www.w3.org/2000/svg"
   xmlns:svg="http://www.w3.org/2000/svg">
  <defs
     id="defs12" />
  <sodipodi:namedview
     id="namedview12"
     pagecolor="#ffffff"
     bordercolor="#000000"
     borderopacity="0.25"
     inkscape:showpageshadow="2"
     inkscape:pageopacity="0.0"
     inkscape:pagecheckerboard="0"
     inkscape:deskcolor="#d1d1d1"
     showgrid="false"
     inkscape:zoom="36.4375"
     inkscape:cx="8"
     inkscape:cy="10.113208"
     inkscape:window-width="1920"
     inkscape:window-height="1011"
     inkscape:window-x="0"
     inkscape:window-y="0"
     inkscape:window-maximized="1"
     inkscape:current-layer="svg12" />
  <filter
     id="a"
     height="1"
     width="1"
     x="0"
     y="0">
    <feColorMatrix
       color-interpolation-filters="sRGB"
       values="0 0 0 0 1 0 0 0 0 1 0 0 0 0 1 0 0 0 1 0"
       id="feColorMatrix1" />
  </filter>
  <mask
     id="b">
    <g
       filter="url(#a)"
       id="g1">
      <path
         d="m -1.6 -1.6 h 19.2 v 19.2 h -19.2 z"
         fill-opacity="0.5"
         id="path1" />
    </g>
  </mask>
  <clipPath
     id="c">
    <path
       d="m 0 0 h 1600 v 1200 h -1600 z"
       id="path2" />
  </clipPath>
  <mask
     id="d">
    <g
       filter="url(#a)"
       id="g3">
      <path
         d="m -1.6 -1.6 h 19.2 v 19.2 h -19.2 z"
         fill-opacity="0.7"
         id="path3" />
    </g>
  </mask>
  <clipPath
     id="e">
    <path
       d="m 0 0 h 1600 v 1200 h -1600 z"
       id="path4" />
  </clipPath>
  <mask
     id="f">
    <g
       filter="url(#a)"
       id="g5">
      <path
         d="m -1.6 -1.6 h 19.2 v 19.2 h -19.2 z"
         fill-opacity="0.35"
         id="path5" />
    </g>
  </mask>
  <clipPath
     id="g">
    <path
       d="m 0 0 h 1600 v 1200 h -1600 z"
       id="path6" />
  </clipPath>
  <g
     mask="url(#b)"
     id="g8">
    <g
       clip-path="url(#c)"
       transform="matrix(1 0 0 1 -240 -160)"
       id="g7">
      <path
         d="m 550 182 c -0.351562 0.003906 -0.695312 0.101562 -1 0.28125 v 3.4375 c 0.304688 0.179688 0.648438 0.277344 1 0.28125 c 1.105469 0 2 -0.894531 2 -2 s -0.894531 -2 -2 -2 z m 0 5 c -0.339844 0 -0.679688 0.058594 -1 0.175781 v 6.824219 h 4 v -4 c 0 -1.65625 -1.34375 -3 -3 -3 z m 0 0"
         id="path7" />
    </g>
  </g>
  <g
     mask="url(#d)"
     id="g10">
    <g
       clip-path="url(#e)"
       transform="matrix(1 0 0 1 -240 -160)"
       id="g9">
      <path
         d="m 569 182 v 4 c 1.105469 0 2 -0.894531 2 -2 s -0.894531 -2 -2 -2 z m 0 5 v 7 h 3 v -4 c 0 -1.65625 -1.34375 -3 -3 -3 z m 0 0"
         id="path8" />
    </g>
  </g>
  <g
     mask="url(#f)"
     id="g12">
    <g
       clip-path="url(#g)"
       transform="matrix(1 0 0 1 -240 -160)"
       id="g11">
      <path
         d="m 573 182.269531 v 3.449219 c 0.613281 -0.355469 0.996094 -1.007812 1 -1.71875 c 0 -0.714844 -0.382812 -1.375 -1 -1.730469 z m 0 4.90625 v 6.824219 h 2 v -4 c 0 -1.269531 -0.800781 -2.402344 -2 -2.824219 z m 0 0"
         id="path10" />
    </g>
  </g>
  <path
     d="m 8 0.160156 c -1.738281 0 -2.453125 0.335938 -3.375 1.09375 c -1.574219 1.605469 -1.988281 2.980469 -1.15625 5 c -1.085938 0.742188 -2.4375 3.71875 -2.4375 4.90625 c 0.003906 -0.074218 1.585938 0.953125 1.585938 0.953125 c -0.851563 0.5 -1.21875 1.34375 -0.992188 2.078125 c 0.378906 1.214844 2.113281 1.90625 3.3125 1.90625 c 1.144531 0.042969 1.875 -0.214844 2.09375 -1.03125 c 0.332031 0.054688 0.628906 0.09375 0.96875 0.09375 s 0.636719 -0.042968 0.96875 -0.097656 c 0.21875 0.820312 0.949219 1.078125 2.09375 1.035156 c 1.199219 0 2.933594 -0.691406 3.3125 -1.90625 c 0.226562 -0.734375 -0.140625 -1.578125 -0.992188 -2.078125 c 0 0 1.585938 -1.027343 1.585938 -0.953125 c 0 -1.1875 -1.351562 -4.164062 -2.4375 -4.90625 c 0.832031 -2.019531 0.417969 -3.394531 -1.15625 -5 c -0.921875 -0.757812 -1.636719 -1.09375 -3.375 -1.09375 z m -1 2.078125 c 1.15625 -0.058593 0.566406 1.492188 1 1.492188 v -0.003907 c 0.433594 0.003907 -0.15625 -1.546874 1 -1.488281 c 2.917969 -0.078125 2.417969 3.589844 1.269531 4.195313 c 1.523438 1.222656 2.722657 3.429687 1.949219 4.628906 l -0.289062 0.449219 c -0.398438 -0.050781 -1.308594 -0.289063 -2.011719 0.289062 c -0.449219 0.390625 -0.980469 0.691407 -0.917969 1.949219 c 0.003906 0.09375 0 0.410156 0 0.410156 h -2 s -0.003906 -0.316406 0 -0.410156 c 0.0625 -1.257812 -0.46875 -1.558594 -0.917969 -1.949219 c -0.703125 -0.578125 -1.613281 -0.339843 -2.011719 -0.289062 l -0.289062 -0.449219 c -0.773438 -1.199219 0.425781 -3.40625 1.949219 -4.628906 c -1.148438 -0.605469 -1.648438 -4.273438 1.269531 -4.195313 z m -0.546875 1.921875 c -0.25 0 -0.453125 0.203125 -0.453125 0.453125 v 0.09375 c 0 0.25 0.203125 0.453125 0.453125 0.453125 h 0.09375 c 0.25 0 0.453125 -0.203125 0.453125 -0.453125 v -0.09375 c 0 -0.25 -0.203125 -0.453125 -0.453125 -0.453125 z m 3.046875 0 c -0.277344 0 -0.5 0.222656 -0.5 0.5 s 0.222656 0.5 0.5 0.5 s 0.5 -0.222656 0.5 -0.5 s -0.222656 -0.5 -0.5 -0.5 z m -1.5 1.410156 c -0.714844 0.007813 -2.03125 0.746094 -2.03125 0.746094 c -0.722656 0.433594 1.621094 1.34375 2.03125 1.246094 c 0.410156 0.097656 2.753906 -0.8125 2.03125 -1.246094 c 0 0 -1.316406 -0.738281 -2.03125 -0.746094 z m 0 0"
     fill="#222222"
     id="path12"
     style="fill:var(--main-pink);fill-opacity:1" />
  <path
     style="fill:#ffc0cb;stroke-width:0.0274443"
     d="M 4.6380789,16.069104 C 4.1489756,16.023408 3.5433087,15.85376 3.0817537,15.633174 2.4047664,15.30963 1.8792324,14.801776 1.6682169,14.267194 1.6019546,14.099327 1.5939098,14.043179 1.5940517,13.749571 1.5942286,13.38363 1.6417218,13.209982 1.8284135,12.89268 1.9384681,12.705631 2.3069958,12.3267 2.490517,12.211886 c 0.071671,-0.04484 0.1303332,-0.08995 0.1303602,-0.100235 8.39e-5,-0.032 -1.3047564,-0.847391 -1.4888017,-0.930352 -0.065072,-0.02933 -0.075472,-0.05001 -0.075472,-0.150083 0,-0.52862 0.4625605,-1.8624739 0.9940768,-2.8665505 C 2.4415564,7.4262699 2.8147546,6.8927234 3.2158628,6.4988504 L 3.472936,6.2464145 3.3362767,5.8401883 C 3.1264034,5.2163302 3.0775735,4.9448862 3.078066,4.4048027 3.0786254,3.7913581 3.1538441,3.4597802 3.4173693,2.9090909 3.7048132,2.3084185 4.3245549,1.518935 4.8190894,1.1234518 5.7412844,0.38596547 6.6174584,0.14660024 8.2469983,0.18696863 c 0.6429555,0.0159279 0.8846018,0.0385419 1.2487135,0.11685872 0.9091702,0.19555351 1.6778282,0.68490069 2.3512072,1.49683815 1.123785,1.3550214 1.349255,2.508957 0.799843,4.0935303 l -0.121512,0.3504568 0.25798,0.2533168 c 0.402027,0.3947595 0.774901,0.9277105 1.16609,1.6666961 0.500777,0.9460095 0.943972,2.1949495 0.983481,2.7714915 l 0.01413,0.20621 -0.240185,0.132861 c -0.316856,0.175272 -1.328003,0.813026 -1.326484,0.836644 6.54e-4,0.01017 0.08878,0.08024 0.195837,0.155709 0.348323,0.245557 0.612424,0.582598 0.758233,0.967642 0.06062,0.160084 0.0702,0.229398 0.07109,0.514348 9.24e-4,0.295082 -0.0067,0.348913 -0.07347,0.517623 -0.32414,0.819244 -1.28675,1.476929 -2.543049,1.73749 -0.303468,0.06294 -0.410247,0.07156 -0.89354,0.07212 -0.594223,6.9e-4 -0.827993,-0.03213 -1.1509315,-0.161557 -0.3261152,-0.130706 -0.5922695,-0.396328 -0.7056813,-0.704269 -0.031965,-0.08679 -0.0719,-0.157413 -0.088746,-0.156935 -0.016846,4.79e-4 -0.1541272,0.01876 -0.3050706,0.04063 -0.1509434,0.02187 -0.4473414,0.03976 -0.6586621,0.03976 -0.2113208,0 -0.5077187,-0.01789 -0.6586621,-0.03976 -0.1509434,-0.02187 -0.2820501,-0.04015 -0.2913485,-0.04063 -0.0093,-4.78e-4 -0.043741,0.07273 -0.07654,0.162683 -0.1514349,0.415325 -0.5227082,0.69336 -1.0794349,0.808355 -0.25385,0.05243 -0.9051345,0.07551 -1.2422131,0.04402 z m 4.3837522,-2.449893 c 0.011559,-0.505497 0.019202,-0.575598 0.084529,-0.7753 0.1162676,-0.355422 0.2798383,-0.574165 0.6763321,-0.904459 0.2900378,-0.241611 0.4484198,-0.335737 0.6972008,-0.414341 0.30451,-0.09621 0.61028,-0.111535 1.069897,-0.05361 0.321233,0.04048 0.385346,0.04208 0.414701,0.01032 0.103029,-0.111467 0.381913,-0.610611 0.43444,-0.777557 0.05158,-0.163945 0.06027,-0.251148 0.05748,-0.577333 -0.0027,-0.3207636 -0.01507,-0.4279646 -0.07468,-0.6490877 C 12.211274,8.8454836 11.907395,8.2522228 11.427954,7.6157804 11.175066,7.2800793 10.70936,6.7762154 10.465281,6.5742304 L 10.317654,6.4520628 10.510456,6.2586215 c 0.22345,-0.2241902 0.34472,-0.4181486 0.469689,-0.7512159 0.150457,-0.4010012 0.189992,-0.645487 0.187174,-1.1574914 C 11.164413,3.8216829 11.11929,3.6079001 10.929824,3.2246998 10.710304,2.7807153 10.286279,2.4433077 9.7701544,2.3019208 9.5502727,2.2416866 8.8383855,2.2176735 8.6700243,2.2648117 8.3819908,2.345456 8.2470751,2.6052831 8.1933264,3.1828583 8.1603856,3.5368346 8.1166216,3.6766705 8.0301953,3.7041013 7.9033111,3.7443727 7.8471031,3.6150891 7.808036,3.1931164 7.7527377,2.5958283 7.6272708,2.3547986 7.3244215,2.2640627 7.1684191,2.2173233 6.447663,2.242252 6.2298456,2.3019208 5.7168752,2.4424437 5.2830727,2.7872053 5.0675732,3.2256288 4.8806976,3.6058187 4.835587,3.8217345 4.8326806,4.3499142 4.8298629,4.8619186 4.8693983,5.1064044 5.0198554,5.5074056 5.1448236,5.8404729 5.2660937,6.0344313 5.4895437,6.2586215 L 5.6823462,6.4520628 5.534931,6.5742304 C 5.2847484,6.7815646 4.8291598,7.2737699 4.5758244,7.6104228 4.0919245,8.2534691 3.7891365,8.8439621 3.6182648,9.4778423 c -0.059607,0.2211231 -0.07194,0.3283241 -0.074677,0.6490877 -0.00278,0.326185 0.0059,0.413388 0.057482,0.577333 0.052527,0.166946 0.3314107,0.66609 0.43444,0.777557 0.029354,0.03176 0.093468,0.03016 0.4147008,-0.01032 0.8878729,-0.111895 1.3542872,0.04569 1.9827883,0.669897 0.1941621,0.192836 0.2887388,0.311199 0.3530111,0.441794 0.1506025,0.306011 0.1775827,0.45386 0.1915633,1.049743 l 0.012717,0.542024 h 1.0094169 1.009417 z"
     id="path9" />
  <path
     style="fill:#ffc0cb;stroke-width:0.0274443"
     d="M 7.5197256,7.4792853 C 6.6918391,7.2616329 5.8593482,6.782736 5.8593482,6.5241402 c 0,-0.052297 0.022769,-0.1112319 0.055694,-0.144157 0.067088,-0.067088 0.7937173,-0.4219479 1.1381307,-0.5558225 0.7786226,-0.3026529 1.115031,-0.3026529 1.8936536,0 0.3444135,0.1338746 1.0710425,0.4887343 1.1381315,0.5558225 0.03293,0.032925 0.05569,0.09186 0.05569,0.144157 0,0.2604989 -0.8387746,0.7410454 -1.6690936,0.9562492 -0.3902516,0.1011461 -0.5636681,0.100945 -0.9518331,-0.0011 z"
     id="path11" />
  <path
     style="fill:#ffc0cb;stroke-width:0.0274443"
     d="M 9.2890555,5.084048 C 9.0074797,4.9418003 8.9302966,4.5898284 9.130642,4.3616476 9.2444931,4.2319784 9.3431023,4.1851583 9.50121,4.1857002 9.7693605,4.1866192 9.9746157,4.3918745 9.9755348,4.660025 9.9760472,4.8095174 9.9333188,4.9070728 9.8206319,5.0136914 9.6668154,5.159225 9.4853967,5.1832366 9.2890555,5.084048 Z"
     id="path13" />
  <path
     style="fill:#ffc0cb;stroke-width:0.0274443"
     d="M 6.2833735,5.1086817 C 6.1838007,5.0635412 6.0581734,4.921389 6.0345016,4.8270733 6.0251845,4.7899507 6.0227237,4.6882081 6.0290333,4.6009786 6.0493139,4.3206027 6.206311,4.1852487 6.5112383,4.1852487 c 0.2770984,0 0.4477289,0.1587172 0.4677179,0.4350621 0.022338,0.3088199 -0.144033,0.5030498 -0.4436572,0.5179477 -0.1019807,0.00507 -0.2011913,-0.00658 -0.2519255,-0.029577 z"
     id="path14" />
</svg>
