<?xml version="1.0" encoding="UTF-8" standalone="no"?>
<svg
   height="16px"
   viewBox="0 0 16 16"
   width="16px"
   version="1.1"
   id="svg3"
   sodipodi:docname="video-reel-symbolic.svg"
   inkscape:version="1.3.2 (091e20ef0f, 2023-11-25)"
   xmlns:inkscape="http://www.inkscape.org/namespaces/inkscape"
   xmlns:sodipodi="http://sodipodi.sourceforge.net/DTD/sodipodi-0.dtd"
   xmlns="http://www.w3.org/2000/svg"
   xmlns:svg="http://www.w3.org/2000/svg">
  <defs
     id="defs3" />
  <sodipodi:namedview
     id="namedview3"
     pagecolor="#ffffff"
     bordercolor="#000000"
     borderopacity="0.25"
     inkscape:showpageshadow="2"
     inkscape:pageopacity="0.0"
     inkscape:pagecheckerboard="0"
     inkscape:deskcolor="#d1d1d1"
     inkscape:zoom="50.3125"
     inkscape:cx="8"
     inkscape:cy="6.4099379"
     inkscape:window-width="1920"
     inkscape:window-height="1011"
     inkscape:window-x="0"
     inkscape:window-y="0"
     inkscape:window-maximized="1"
     inkscape:current-layer="svg3" />
  <g
     fill="#222222"
     id="g3"
     style="fill:#ffc0cb;fill-opacity:1">
    <path
       d="m 0.00390625 0 v 15 h 1.99999975 v -1 h 12 v 1 h 2 v -15 h -2 v 1 h -12 v -1 z m 1.99999975 3 h 12 v 9 h -12 z m 0 0"
       id="path1"
       style="fill:#ffc0cb;fill-opacity:1" />
    <path
       d="m 13.003906 11 v -1 h -1 v 1 z m -9 0 v -1 h -1 v 1 z m 9 -2 v -1 h -1 v 1 z m -9 0 v -1 h -1 v 1 z m 9 -2 v -1 h -1 v 1 z m -9 0 v -1 h -1 v 1 z m 9 -2 v -1 h -1 v 1 z m -9 0 v -1 h -1 v 1 z m 0 0"
       id="path2"
       style="fill:#ffc0cb;fill-opacity:1" />
    <path
       d="m 7.003906 4.5 c 0.195313 0 0.390625 0.058594 0.554688 0.167969 l 3 2 c 0.59375 0.394531 0.59375 1.269531 0 1.664062 l -3 2 c -0.164063 0.109375 -0.359375 0.167969 -0.554688 0.167969 c 0 0 -1 0 -1 -1 v -4 c 0 -1 1 -1 1 -1 z m 0 0"
       id="path3"
       style="fill:#ffc0cb;fill-opacity:1" />
  </g>
</svg>
