<?xml version="1.0" encoding="UTF-8" standalone="no"?>
<svg
   height="16px"
   viewBox="0 0 16 16"
   width="16px"
   version="1.1"
   id="svg3"
   sodipodi:docname="video-reel-symbolic.svg"
   inkscape:version="1.3.2 (091e20ef0f, 2023-11-25)"
   xmlns:inkscape="http://www.inkscape.org/namespaces/inkscape"
   xmlns:sodipodi="http://sodipodi.sourceforge.net/DTD/sodipodi-0.dtd"
   xmlns="http://www.w3.org/2000/svg"
   xmlns:svg="http://www.w3.org/2000/svg">
  <defs
     id="defs3" />
  <sodipodi:namedview
     id="namedview3"
     pagecolor="#ffffff"
     bordercolor="#000000"
     borderopacity="0.25"
     inkscape:showpageshadow="2"
     inkscape:pageopacity="0.0"
     inkscape:pagecheckerboard="0"
     inkscape:deskcolor="#d1d1d1"
     inkscape:zoom="50.3125"
     inkscape:cx="8"
     inkscape:cy="6.4099379"
     inkscape:window-width="1920"
     inkscape:window-height="1011"
     inkscape:window-x="0"
     inkscape:window-y="0"
     inkscape:window-maximized="1"
     inkscape:current-layer="svg3" />
  <g
     fill="#222222"
     id="g3"
     style="fill:var(--main-pink);fill-opacity:1">
    <path
       d="m 0.00390625 0 v 15 h 1.99999975 v -1 h 12 v 1 h 2 v -15 h -2 v 1 h -12 v -1 z m 1.99999975 3 h 12 v 9 h -12 z m 0 0"
       id="path1"
       style="fill:var(--main-pink);fill-opacity:1" />
    <path
       d="m 13.003906 11 v -1 h -1 v 1 z m -9 0 v -1 h -1 v 1 z m 9 -2 v -1 h -1 v 1 z m -9 0 v -1 h -1 v 1 z m 9 -2 v -1 h -1 v 1 z m -9 0 v -1 h -1 v 1 z m 9 -2 v -1 h -1 v 1 z m -9 0 v -1 h -1 v 1 z m 0 0"
       id="path2"
       style="fill:var(--main-pink);fill-opacity:1" />
    <path
       d="m 7.003906 4.5 c 0.195313 0 0.390625 0.058594 0.554688 0.167969 l 3 2 c 0.59375 0.394531 0.59375 1.269531 0 1.664062 l -3 2 c -0.164063 0.109375 -0.359375 0.167969 -0.554688 0.167969 c 0 0 -1 0 -1 -1 v -4 c 0 -1 1 -1 1 -1 z m 0 0"
       id="path3"
       style="fill:var(--main-pink);fill-opacity:1" />
  </g>
  <path
     style="fill:#ffc0cb;stroke-width:0.0198758"
     d="M 6.706981,10.439132 C 6.3424999,10.32816 6.1132112,10.092261 6.0416695,9.7546413 5.999249,9.5544507 5.9992089,5.4519485 6.0416254,5.2517802 6.1018641,4.9675074 6.2707085,4.7553425 6.537545,4.6286224 6.808636,4.4998819 7.1017752,4.4802909 7.3499856,4.5743256 c 0.045955,0.01741 0.8143958,0.5178763 1.707646,1.112147 1.3839734,0.9207441 1.6361684,1.0957708 1.7057764,1.1838318 0.155653,0.1969161 0.225309,0.3897206 0.225027,0.6228633 -3.26e-4,0.2684067 -0.08267,0.4784171 -0.264064,0.673498 -0.114648,0.1232954 -3.2413668,2.2136733 -3.3902095,2.2665353 -0.057867,0.02055 -0.1782505,0.03871 -0.2881988,0.04347 -0.1562244,0.0068 -0.2147418,2.85e-4 -0.3389817,-0.03754 z"
     id="path4" />
  <path
     style="fill:#ffc0cb;stroke-width:0.0198758"
     d="M 3.0111801,6.4993789 V 6.0124224 H 3.4981366 3.9850932 V 6.4993789 6.9863354 H 3.4981366 3.0111801 Z"
     id="path5" />
  <path
     style="fill:#ffc0cb;stroke-width:0.0198758"
     d="M 3.0111801,4.5018634 V 4.0049689 H 3.4981366 3.9850932 V 4.5018634 4.9987578 H 3.4981366 3.0111801 Z"
     id="path6" />
  <path
     style="fill:#ffc0cb;stroke-width:0.0198758"
     d="M 3.0111801,8.4968944 V 8 H 3.4981366 3.9850932 V 8.4968944 8.9937888 H 3.4981366 3.0111801 Z"
     id="path7" />
  <path
     style="fill:#ffc0cb;stroke-width:0.0198758"
     d="m 3.0111801,10.49441 v -0.486957 h 0.4869565 0.4869566 v 0.486957 0.486956 H 3.4981366 3.0111801 Z"
     id="path8" />
  <path
     style="fill:#ffc0cb;stroke-width:0.0198758"
     d="M 12.014907,4.5018634 V 4.0049689 h 0.486956 0.486957 v 0.4968945 0.4968944 h -0.486957 -0.486956 z"
     id="path9" />
  <path
     style="fill:#ffc0cb;stroke-width:0.0198758"
     d="M 12.014907,6.4993789 V 6.0124224 h 0.486956 0.486957 v 0.4869565 0.4869565 h -0.486957 -0.486956 z"
     id="path10" />
  <path
     style="fill:#ffc0cb;stroke-width:0.0198758"
     d="M 12.014907,8.4968944 V 8 h 0.486956 0.486957 v 0.4968944 0.4968944 h -0.486957 -0.486956 z"
     id="path11" />
  <path
     style="fill:#ffc0cb;stroke-width:0.0198758"
     d="m 12.014907,10.49441 v -0.486957 h 0.486956 0.486957 v 0.486957 0.486956 h -0.486957 -0.486956 z"
     id="path12" />
  <path
     style="fill:#ffc0cb;stroke-width:0.0198758"
     d="M 0.00993789,7.5031056 V 0.00993789 H 1.0037267 1.9975155 V 0.5068323 1.0037267 H 8.0099379 14.02236 V 0.5068323 0.00993789 h 0.983851 0.983851 V 7.5031056 14.996273 H 15.006211 14.02236 V 14.489441 13.982609 H 8.0099379 1.9975155 v 0.506832 0.506832 H 1.0037267 0.00993789 Z m 14.01242211,0 V 2.9913043 H 8.0099379 1.9975155 V 7.5031056 12.014907 H 8.0099379 14.02236 Z"
     id="path13" />
</svg>
